<?xml version="1.0" encoding="UTF-8" standalone="no"?>
<svg
   xmlns:dc="http://purl.org/dc/elements/1.1/"
   xmlns:cc="http://creativecommons.org/ns#"
   xmlns:rdf="http://www.w3.org/1999/02/22-rdf-syntax-ns#"
   xmlns:svg="http://www.w3.org/2000/svg"
   xmlns="http://www.w3.org/2000/svg"
   xmlns:sodipodi="http://sodipodi.sourceforge.net/DTD/sodipodi-0.dtd"
   xmlns:inkscape="http://www.inkscape.org/namespaces/inkscape"
   width="22.251282mm"
   height="15.171455mm"
   viewBox="0 0 22.251281 15.171457"
   version="1.1"
   id="svg11514"
   inkscape:version="1.0.2 (e86c8708, 2021-01-15)"
   sodipodi:docname="winds-strong.svg">
  <defs
     id="defs11508">
    <clipPath
       clipPathUnits="userSpaceOnUse"
       id="clipPath4096">
      <path
         d="m 185.521,327.85 h 63.075 v -43.006 h -63.075 z"
         id="path4094" />
    </clipPath>
  </defs>
  <sodipodi:namedview
     id="base"
     pagecolor="#ffffff"
     bordercolor="#666666"
     borderopacity="1.0"
     inkscape:pageopacity="0.0"
     inkscape:pageshadow="2"
     inkscape:zoom="7.497627"
     inkscape:cx="42.049657"
     inkscape:cy="28.670481"
     inkscape:document-units="mm"
     inkscape:current-layer="layer1"
     inkscape:document-rotation="0"
     showgrid="false"
     inkscape:window-width="1298"
     inkscape:window-height="816"
     inkscape:window-x="0"
     inkscape:window-y="23"
     inkscape:window-maximized="0" />
  <metadata
     id="metadata11511">
    <rdf:RDF>
      <cc:Work
         rdf:about="">
        <dc:format>image/svg+xml</dc:format>
        <dc:type
           rdf:resource="http://purl.org/dc/dcmitype/StillImage" />
        <dc:title></dc:title>
      </cc:Work>
    </rdf:RDF>
  </metadata>
  <g
     inkscape:label="Layer 1"
     inkscape:groupmode="layer"
     id="layer1"
     transform="translate(-117.84642,-158.06854)">
    <g
       clip-path="url(#clipPath4096)"
       opacity="0.0999985"
       id="g4110"
       style="opacity:0.85;fill:#d5fff6"
       transform="matrix(0.35277777,0,0,-0.35277777,52.398733,273.72663)">
      <g
         transform="translate(238.5605,307.6367)"
         id="g4100"
         style="fill:#d5fff6">
        <path
           d="m 0,0 h -34.404 c -0.792,0 -1.434,0.642 -1.434,1.434 0,0.792 0.642,1.433 1.434,1.433 H 0 c 3.952,0 7.168,3.247 7.168,7.239 0,3.993 -3.216,7.24 -7.168,7.24 -0.792,0 -1.434,0.641 -1.434,1.433 0,0.792 0.642,1.434 1.434,1.434 5.533,0 10.035,-4.533 10.035,-10.107 C 10.035,4.533 5.533,0 0,0"
           style="fill:#d5fff6;fill-opacity:1;fill-rule:nonzero;stroke:none"
           id="path4098" />
      </g>
      <g
         transform="translate(237.9873,301.9023)"
         id="g4104"
         style="fill:#d5fff6">
        <path
           d="m 0,0 h -51.033 c -0.792,0 -1.434,0.643 -1.434,1.434 0,0.792 0.642,1.433 1.434,1.433 H 0 C 0.792,2.867 1.434,2.226 1.434,1.434 1.434,0.643 0.792,0 0,0"
           style="fill:#d5fff6;fill-opacity:1;fill-rule:nonzero;stroke:none"
           id="path4102" />
      </g>
      <g
         transform="translate(238.5605,284.8437)"
         id="g4108"
         style="fill:#d5fff6">
        <path
           d="m 0,0 c -0.792,0 -1.434,0.642 -1.434,1.434 0,0.792 0.642,1.433 1.434,1.433 2.412,0 4.301,1.858 4.301,4.229 0,2.372 -1.889,4.229 -4.301,4.229 h -41.858 c -0.792,0 -1.434,0.642 -1.434,1.434 0,0.791 0.642,1.432 1.434,1.432 H 0 c 3.952,0 7.168,-3.182 7.168,-7.095 C 7.168,3.184 3.952,0 0,0"
           style="fill:#d5fff6;fill-opacity:1;fill-rule:nonzero;stroke:none"
           id="path4106" />
      </g>
    </g>
  </g>
</svg>
