<?xml version="1.0" encoding="UTF-8" standalone="no"?>
<svg
   xmlns:dc="http://purl.org/dc/elements/1.1/"
   xmlns:cc="http://creativecommons.org/ns#"
   xmlns:rdf="http://www.w3.org/1999/02/22-rdf-syntax-ns#"
   xmlns:svg="http://www.w3.org/2000/svg"
   xmlns="http://www.w3.org/2000/svg"
   xmlns:sodipodi="http://sodipodi.sourceforge.net/DTD/sodipodi-0.dtd"
   xmlns:inkscape="http://www.inkscape.org/namespaces/inkscape"
   width="9.5926018mm"
   height="9.5928164mm"
   viewBox="0 0 9.5926016 9.5928175"
   version="1.1"
   id="svg11514"
   inkscape:version="1.0.2 (e86c8708, 2021-01-15)"
   sodipodi:docname="clear.svg">
  <defs
     id="defs11508" />
  <sodipodi:namedview
     id="base"
     pagecolor="#ffffff"
     bordercolor="#666666"
     borderopacity="1.0"
     inkscape:pageopacity="0.0"
     inkscape:pageshadow="2"
     inkscape:zoom="9.4862581"
     inkscape:cx="17.973617"
     inkscape:cy="18.39556"
     inkscape:document-units="mm"
     inkscape:current-layer="layer1"
     inkscape:document-rotation="0"
     showgrid="false"
     inkscape:window-width="1298"
     inkscape:window-height="816"
     inkscape:window-x="0"
     inkscape:window-y="23"
     inkscape:window-maximized="0" />
  <metadata
     id="metadata11511">
    <rdf:RDF>
      <cc:Work
         rdf:about="">
        <dc:format>image/svg+xml</dc:format>
        <dc:type
           rdf:resource="http://purl.org/dc/dcmitype/StillImage" />
        <dc:title />
      </cc:Work>
    </rdf:RDF>
  </metadata>
  <g
     inkscape:label="Layer 1"
     inkscape:groupmode="layer"
     id="layer1"
     transform="translate(-124.29928,-161.20604)">
    <g
       transform="matrix(0.21404891,0,0,-0.21404891,129.09547,161.77027)"
       id="g4908"
       style="opacity:0.85;fill:#d5fff6">
      <path
         d="m 0,0 c -10.901,0 -19.771,-8.87 -19.771,-19.771 0,-10.903 8.87,-19.772 19.771,-19.772 10.902,0 19.771,8.869 19.771,19.772 C 19.771,-8.87 10.902,0 0,0 m 0,-42.18 c -12.355,0 -22.407,10.052 -22.407,22.409 0,12.355 10.052,22.407 22.407,22.407 12.355,0 22.408,-10.052 22.408,-22.407 C 22.408,-32.128 12.355,-42.18 0,-42.18"
         style="fill:#d5fff6;fill-opacity:1;fill-rule:nonzero;stroke:none"
         id="path4906" />
    </g>
  </g>
</svg>
