<?xml version="1.0" encoding="UTF-8" standalone="no"?>
<svg
   xmlns:dc="http://purl.org/dc/elements/1.1/"
   xmlns:cc="http://creativecommons.org/ns#"
   xmlns:rdf="http://www.w3.org/1999/02/22-rdf-syntax-ns#"
   xmlns:svg="http://www.w3.org/2000/svg"
   xmlns="http://www.w3.org/2000/svg"
   xmlns:sodipodi="http://sodipodi.sourceforge.net/DTD/sodipodi-0.dtd"
   xmlns:inkscape="http://www.inkscape.org/namespaces/inkscape"
   width="22.365757mm"
   height="15.803739mm"
   viewBox="0 0 22.365757 15.803739"
   version="1.1"
   id="svg11514"
   inkscape:version="1.0.2 (e86c8708, 2021-01-15)"
   sodipodi:docname="cloudy.svg">
  <defs
     id="defs11508" />
  <sodipodi:namedview
     id="base"
     pagecolor="#ffffff"
     bordercolor="#666666"
     borderopacity="1.0"
     inkscape:pageopacity="0.0"
     inkscape:pageshadow="2"
     inkscape:zoom="10.195768"
     inkscape:cx="42.265998"
     inkscape:cy="29.865337"
     inkscape:document-units="mm"
     inkscape:current-layer="layer1"
     inkscape:document-rotation="0"
     showgrid="false"
     inkscape:window-width="1252"
     inkscape:window-height="817"
     inkscape:window-x="0"
     inkscape:window-y="23"
     inkscape:window-maximized="0" />
  <metadata
     id="metadata11511">
    <rdf:RDF>
      <cc:Work
         rdf:about="">
        <dc:format>image/svg+xml</dc:format>
        <dc:type
           rdf:resource="http://purl.org/dc/dcmitype/StillImage" />
        <dc:title></dc:title>
      </cc:Work>
    </rdf:RDF>
  </metadata>
  <g
     inkscape:label="Layer 1"
     inkscape:groupmode="layer"
     id="layer1"
     transform="translate(-94.650454,-140.26479)">
    <g
       transform="matrix(0.35277777,0,0,-0.35277777,99.775962,146.79753)"
       id="g5816"
       style="opacity:0.85;fill:#d5fff6">
      <path
         d="m 0,0 c -6.555,0 -11.887,-5.302 -11.887,-11.819 0,-6.517 5.332,-11.819 11.887,-11.819 h 26.416 c 10.925,0 19.812,8.855 19.812,19.739 0,10.904 -8.887,19.775 -19.812,19.775 C 16.933,15.876 8.752,9.117 6.964,-0.195 6.887,-0.597 6.628,-0.94 6.264,-1.125 5.899,-1.31 5.47,-1.315 5.1,-1.139 3.512,-0.383 1.795,0 0,0 M 26.416,-26.28 H 0 c -8.011,0 -14.529,6.487 -14.529,14.461 0,7.973 6.518,14.461 14.529,14.461 1.636,0 3.22,-0.262 4.728,-0.78 2.599,9.742 11.477,16.656 21.688,16.656 12.381,0 22.454,-10.056 22.454,-22.417 0,-12.341 -10.073,-22.381 -22.454,-22.381"
         style="fill:#d5fff6;fill-opacity:1;fill-rule:nonzero;stroke:none"
         id="path5814" />
    </g>
  </g>
</svg>
