<?xml version="1.0" encoding="UTF-8" standalone="no"?>
<svg
   xmlns:dc="http://purl.org/dc/elements/1.1/"
   xmlns:cc="http://creativecommons.org/ns#"
   xmlns:rdf="http://www.w3.org/1999/02/22-rdf-syntax-ns#"
   xmlns:svg="http://www.w3.org/2000/svg"
   xmlns="http://www.w3.org/2000/svg"
   xmlns:sodipodi="http://sodipodi.sourceforge.net/DTD/sodipodi-0.dtd"
   xmlns:inkscape="http://www.inkscape.org/namespaces/inkscape"
   width="22.856825mm"
   height="14.003159mm"
   viewBox="0 0 22.856823 14.003161"
   version="1.1"
   id="svg11514"
   inkscape:version="1.0.2 (e86c8708, 2021-01-15)"
   sodipodi:docname="foggy.svg">
  <defs
     id="defs11508">
    <clipPath
       clipPathUnits="userSpaceOnUse"
       id="clipPath4096">
      <path
         d="m 185.521,327.85 h 63.075 v -43.006 h -63.075 z"
         id="path4094" />
    </clipPath>
    <clipPath
       clipPathUnits="userSpaceOnUse"
       id="clipPath4464">
      <path
         d="m 436.22,594.375 h 34.271 V 549.561 H 436.22 Z"
         id="path4462" />
    </clipPath>
  </defs>
  <sodipodi:namedview
     id="base"
     pagecolor="#ffffff"
     bordercolor="#666666"
     borderopacity="1.0"
     inkscape:pageopacity="0.0"
     inkscape:pageshadow="2"
     inkscape:zoom="5.0916976"
     inkscape:cx="45.281488"
     inkscape:cy="25.299967"
     inkscape:document-units="mm"
     inkscape:current-layer="layer1"
     inkscape:document-rotation="0"
     showgrid="false"
     inkscape:window-width="1298"
     inkscape:window-height="816"
     inkscape:window-x="0"
     inkscape:window-y="23"
     inkscape:window-maximized="0" />
  <metadata
     id="metadata11511">
    <rdf:RDF>
      <cc:Work
         rdf:about="">
        <dc:format>image/svg+xml</dc:format>
        <dc:type
           rdf:resource="http://purl.org/dc/dcmitype/StillImage" />
        <dc:title></dc:title>
      </cc:Work>
    </rdf:RDF>
  </metadata>
  <g
     inkscape:label="Layer 1"
     inkscape:groupmode="layer"
     id="layer1"
     transform="translate(-128.28006,-165.86542)">
    <g
       transform="matrix(0.35277777,0,0,-0.35277777,147.57136,173.63641)"
       id="g4860"
       style="opacity:0.85;fill:#d5fff6">
      <path
         d="M 0,0 C 0,12.146 -10.142,22.028 -22.288,22.028 -34.435,22.028 -44.576,12.146 -44.576,0 v -2.895 h 3.11 V 0 c 0,10.718 8.46,19.437 19.178,19.437 C -11.57,19.437 -3.11,10.718 -3.11,0 V -3.412 H 0 Z"
         style="fill:#d5fff6;fill-opacity:1;fill-rule:nonzero;stroke:none"
         id="path4858" />
    </g>
    <g
       transform="matrix(0.35277777,0,0,-0.35277777,148.85124,176.0287)"
       id="g4864"
       style="opacity:0.85;fill:#d5fff6">
      <path
         d="M 0,0 C -2.117,0 -4.001,1.02 -5.184,2.596 -6.366,1.02 -8.25,0 -10.366,0 -12.483,0 -14.367,1.02 -15.55,2.596 -16.732,1.02 -18.616,0 -20.732,0 -22.85,0 -24.733,1.02 -25.916,2.596 -27.099,1.02 -28.982,0 -31.1,0 c -2.116,0 -4,1.02 -5.182,2.596 C -37.465,1.02 -39.349,0 -41.466,0 c -2.116,0 -4,1.02 -5.182,2.596 C -47.831,1.02 -49.715,0 -51.832,0 c -3.572,0 -6.48,2.906 -6.48,6.479 0,0.715 0.582,1.295 1.296,1.295 0.717,0 1.297,-0.58 1.297,-1.295 0,-2.144 1.743,-3.888 3.887,-3.888 2.144,0 3.887,1.744 3.887,3.888 0,0.715 0.581,1.295 1.297,1.295 0.714,0 1.295,-0.58 1.295,-1.295 0,-2.144 1.744,-3.888 3.887,-3.888 2.145,0 3.888,1.744 3.888,3.888 0,0.715 0.58,1.295 1.296,1.295 0.715,0 1.296,-0.58 1.296,-1.295 0,-2.144 1.743,-3.888 3.886,-3.888 2.145,0 3.888,1.744 3.888,3.888 0,0.715 0.58,1.295 1.296,1.295 0.716,0 1.296,-0.58 1.296,-1.295 0,-2.144 1.743,-3.888 3.888,-3.888 2.143,0 3.886,1.744 3.886,3.888 0,0.715 0.581,1.295 1.296,1.295 0.716,0 1.296,-0.58 1.296,-1.295 0,-2.144 1.743,-3.888 3.888,-3.888 2.143,0 3.887,1.744 3.887,3.888 0,0.715 0.58,1.295 1.295,1.295 0.716,0 1.297,-0.58 1.297,-1.295 0,-2.144 1.743,-3.888 3.887,-3.888 2.144,0 3.887,1.744 3.887,3.888 0,0.715 0.58,1.295 1.297,1.295 0.714,0 1.295,-0.58 1.295,-1.295 C 6.479,2.906 3.572,0 0,0"
         style="fill:#d5fff6;fill-opacity:1;fill-rule:nonzero;stroke:none"
         id="path4862" />
    </g>
    <g
       transform="matrix(0.35277777,0,0,-0.35277777,148.85124,179.86858)"
       id="g4868"
       style="opacity:0.85;fill:#d5fff6">
      <path
         d="M 0,0 C -2.117,0 -4.001,1.021 -5.184,2.595 -6.366,1.021 -8.25,0 -10.366,0 -12.483,0 -14.367,1.021 -15.55,2.595 -16.732,1.021 -18.616,0 -20.732,0 -22.85,0 -24.733,1.021 -25.916,2.595 -27.099,1.021 -28.982,0 -31.1,0 c -2.116,0 -4,1.021 -5.182,2.595 C -37.465,1.021 -39.349,0 -41.466,0 c -2.116,0 -4,1.021 -5.182,2.595 C -47.831,1.021 -49.715,0 -51.832,0 c -0.716,0 -1.296,0.58 -1.296,1.296 0,0.716 0.58,1.295 1.296,1.295 2.144,0 3.887,1.744 3.887,3.888 0,0.715 0.581,1.296 1.297,1.296 0.714,0 1.295,-0.581 1.295,-1.296 0,-2.144 1.744,-3.888 3.887,-3.888 2.145,0 3.888,1.744 3.888,3.888 0,0.715 0.58,1.296 1.296,1.296 0.715,0 1.296,-0.581 1.296,-1.296 0,-2.144 1.743,-3.888 3.886,-3.888 2.145,0 3.888,1.744 3.888,3.888 0,0.715 0.58,1.296 1.296,1.296 0.716,0 1.296,-0.581 1.296,-1.296 0,-2.144 1.743,-3.888 3.888,-3.888 2.143,0 3.886,1.744 3.886,3.888 0,0.715 0.581,1.296 1.296,1.296 0.716,0 1.296,-0.581 1.296,-1.296 0,-2.144 1.743,-3.888 3.888,-3.888 2.143,0 3.887,1.744 3.887,3.888 0,0.715 0.58,1.296 1.295,1.296 0.716,0 1.297,-0.581 1.297,-1.296 0,-2.144 1.743,-3.888 3.887,-3.888 0.716,0 1.296,-0.579 1.296,-1.295 C 1.296,0.58 0.716,0 0,0"
         style="fill:#d5fff6;fill-opacity:1;fill-rule:nonzero;stroke:none"
         id="path4866" />
    </g>
  </g>
</svg>
