<?xml version="1.0" encoding="UTF-8" standalone="no"?>
<svg
   xmlns:dc="http://purl.org/dc/elements/1.1/"
   xmlns:cc="http://creativecommons.org/ns#"
   xmlns:rdf="http://www.w3.org/1999/02/22-rdf-syntax-ns#"
   xmlns:svg="http://www.w3.org/2000/svg"
   xmlns="http://www.w3.org/2000/svg"
   xmlns:sodipodi="http://sodipodi.sourceforge.net/DTD/sodipodi-0.dtd"
   xmlns:inkscape="http://www.inkscape.org/namespaces/inkscape"
   width="22.365404mm"
   height="20.451509mm"
   viewBox="0 0 22.365404 20.45151"
   version="1.1"
   id="svg11514"
   inkscape:version="1.0.2 (e86c8708, 2021-01-15)"
   sodipodi:docname="drizzle.svg">
  <defs
     id="defs11508" />
  <sodipodi:namedview
     id="base"
     pagecolor="#ffffff"
     bordercolor="#666666"
     borderopacity="1.0"
     inkscape:pageopacity="0.0"
     inkscape:pageshadow="2"
     inkscape:zoom="7.8657599"
     inkscape:cx="42.26535"
     inkscape:cy="38.648534"
     inkscape:document-units="mm"
     inkscape:current-layer="layer1"
     inkscape:document-rotation="0"
     showgrid="false"
     inkscape:window-width="1252"
     inkscape:window-height="816"
     inkscape:window-x="0"
     inkscape:window-y="23"
     inkscape:window-maximized="0" />
  <metadata
     id="metadata11511">
    <rdf:RDF>
      <cc:Work
         rdf:about="">
        <dc:format>image/svg+xml</dc:format>
        <dc:type
           rdf:resource="http://purl.org/dc/dcmitype/StillImage" />
        <dc:title></dc:title>
      </cc:Work>
    </rdf:RDF>
  </metadata>
  <g
     inkscape:label="Layer 1"
     inkscape:groupmode="layer"
     id="layer1"
     transform="translate(-106.88356,-150.75253)">
    <g
       transform="matrix(0.35277777,0,0,-0.35277777,114.2453,168.40835)"
       id="g5784"
       style="opacity:0.85;fill:#d5fff6">
      <path
         d="m 0,0 c 0,-0.876 -0.709,-1.585 -1.585,-1.585 -0.875,0 -1.585,0.709 -1.585,1.585 0,0.875 0.71,1.585 1.585,1.585 C -0.709,1.585 0,0.875 0,0"
         style="fill:#d5fff6;fill-opacity:1;fill-rule:nonzero;stroke:none"
         id="path5782" />
    </g>
    <g
       transform="matrix(0.35277777,0,0,-0.35277777,117.22736,168.40835)"
       id="g5788"
       style="opacity:0.85;fill:#d5fff6">
      <path
         d="m 0,0 c 0,-0.876 -0.709,-1.585 -1.585,-1.585 -0.875,0 -1.585,0.709 -1.585,1.585 0,0.875 0.71,1.585 1.585,1.585 C -0.709,1.585 0,0.875 0,0"
         style="fill:#d5fff6;fill-opacity:1;fill-rule:nonzero;stroke:none"
         id="path5786" />
    </g>
    <g
       transform="matrix(0.35277777,0,0,-0.35277777,120.20978,168.40835)"
       id="g5792"
       style="opacity:0.85;fill:#d5fff6">
      <path
         d="m 0,0 c 0,-0.876 -0.71,-1.585 -1.585,-1.585 -0.876,0 -1.585,0.709 -1.585,1.585 0,0.875 0.709,1.585 1.585,1.585 C -0.71,1.585 0,0.875 0,0"
         style="fill:#d5fff6;fill-opacity:1;fill-rule:nonzero;stroke:none"
         id="path5790" />
    </g>
    <g
       transform="matrix(0.35277777,0,0,-0.35277777,123.19185,168.40835)"
       id="g5796"
       style="opacity:0.85;fill:#d5fff6">
      <path
         d="m 0,0 c 0,-0.876 -0.71,-1.585 -1.585,-1.585 -0.876,0 -1.585,0.709 -1.585,1.585 0,0.875 0.709,1.585 1.585,1.585 C -0.71,1.585 0,0.875 0,0"
         style="fill:#d5fff6;fill-opacity:1;fill-rule:nonzero;stroke:none"
         id="path5794" />
    </g>
    <g
       transform="matrix(0.35277777,0,0,-0.35277777,115.73635,170.64489)"
       id="g5800"
       style="opacity:0.85;fill:#d5fff6">
      <path
         d="m 0,0 c 0,-0.876 -0.709,-1.585 -1.585,-1.585 -0.875,0 -1.585,0.709 -1.585,1.585 0,0.875 0.71,1.585 1.585,1.585 C -0.709,1.585 0,0.875 0,0"
         style="fill:#d5fff6;fill-opacity:1;fill-rule:nonzero;stroke:none"
         id="path5798" />
    </g>
    <g
       transform="matrix(0.35277777,0,0,-0.35277777,118.71877,170.64489)"
       id="g5804"
       style="opacity:0.85;fill:#d5fff6">
      <path
         d="m 0,0 c 0,-0.876 -0.71,-1.585 -1.586,-1.585 -0.875,0 -1.585,0.709 -1.585,1.585 0,0.875 0.71,1.585 1.585,1.585 C -0.71,1.585 0,0.875 0,0"
         style="fill:#d5fff6;fill-opacity:1;fill-rule:nonzero;stroke:none"
         id="path5802" />
    </g>
    <g
       transform="matrix(0.35277777,0,0,-0.35277777,121.70083,170.64489)"
       id="g5808"
       style="opacity:0.85;fill:#d5fff6">
      <path
         d="m 0,0 c 0,-0.876 -0.71,-1.585 -1.585,-1.585 -0.876,0 -1.585,0.709 -1.585,1.585 0,0.875 0.709,1.585 1.585,1.585 C -0.71,1.585 0,0.875 0,0"
         style="fill:#d5fff6;fill-opacity:1;fill-rule:nonzero;stroke:none"
         id="path5806" />
    </g>
    <g
       transform="matrix(0.35277777,0,0,-0.35277777,112.00872,157.27363)"
       id="g5812"
       style="opacity:0.85;fill:#d5fff6">
      <path
         d="m 0,0 c -6.554,0 -11.887,-5.388 -11.887,-11.905 0,-6.518 5.333,-11.906 11.887,-11.906 h 26.417 c 10.924,0 19.812,8.941 19.812,19.826 0,10.904 -8.888,19.818 -19.812,19.818 C 16.934,15.833 8.753,9.096 6.965,-0.217 6.888,-0.618 6.629,-0.951 6.265,-1.135 5.9,-1.32 5.47,-1.321 5.101,-1.144 3.512,-0.389 1.796,0 0,0 M 26.417,-26.811 H 0 c -8.011,0 -14.528,6.753 -14.528,14.727 0,7.973 6.517,14.593 14.528,14.593 1.637,0 3.221,-0.196 4.728,-0.713 2.599,9.742 11.478,16.689 21.689,16.689 12.381,0 22.453,-10.306 22.453,-22.666 0,-12.341 -10.072,-22.63 -22.453,-22.63"
         style="fill:#d5fff6;fill-opacity:1;fill-rule:nonzero;stroke:none"
         id="path5810" />
    </g>
  </g>
</svg>
