<?xml version="1.0" encoding="UTF-8" standalone="no"?>
<svg
   xmlns:dc="http://purl.org/dc/elements/1.1/"
   xmlns:cc="http://creativecommons.org/ns#"
   xmlns:rdf="http://www.w3.org/1999/02/22-rdf-syntax-ns#"
   xmlns:svg="http://www.w3.org/2000/svg"
   xmlns="http://www.w3.org/2000/svg"
   xmlns:sodipodi="http://sodipodi.sourceforge.net/DTD/sodipodi-0.dtd"
   xmlns:inkscape="http://www.inkscape.org/namespaces/inkscape"
   width="25.288521mm"
   height="14.417109mm"
   viewBox="0 0 25.28852 14.417111"
   version="1.1"
   id="svg11514"
   inkscape:version="1.0.2 (e86c8708, 2021-01-15)"
   sodipodi:docname="haze.svg">
  <defs
     id="defs11508">
    <clipPath
       clipPathUnits="userSpaceOnUse"
       id="clipPath4096">
      <path
         d="m 185.521,327.85 h 63.075 v -43.006 h -63.075 z"
         id="path4094" />
    </clipPath>
  </defs>
  <sodipodi:namedview
     id="base"
     pagecolor="#ffffff"
     bordercolor="#666666"
     borderopacity="1.0"
     inkscape:pageopacity="0.0"
     inkscape:pageshadow="2"
     inkscape:zoom="7.8899247"
     inkscape:cx="47.789341"
     inkscape:cy="27.244933"
     inkscape:document-units="mm"
     inkscape:current-layer="layer1"
     inkscape:document-rotation="0"
     showgrid="false"
     inkscape:window-width="1298"
     inkscape:window-height="816"
     inkscape:window-x="0"
     inkscape:window-y="23"
     inkscape:window-maximized="0" />
  <metadata
     id="metadata11511">
    <rdf:RDF>
      <cc:Work
         rdf:about="">
        <dc:format>image/svg+xml</dc:format>
        <dc:type
           rdf:resource="http://purl.org/dc/dcmitype/StillImage" />
        <dc:title></dc:title>
      </cc:Work>
    </rdf:RDF>
  </metadata>
  <g
     inkscape:label="Layer 1"
     inkscape:groupmode="layer"
     id="layer1"
     transform="translate(-115.75355,-158.16479)">
    <g
       transform="matrix(0.35277777,0,0,-0.35277777,121.52697,167.48659)"
       id="g4844"
       style="opacity:0.85;fill:#d5fff6">
      <path
         d="m 0,0 c -0.204,1.605 -0.316,2.432 -0.316,3.633 0,11.062 8.999,20.116 20.06,20.116 11.062,0 20.061,-9.082 20.061,-20.144 0,-1.202 -0.113,-2 -0.316,-3.605 h 2.717 c 0.179,1.605 0.273,2.436 0.273,3.633 0,12.537 -10.199,22.791 -22.735,22.791 -12.536,0 -22.735,-10.282 -22.735,-22.819 0,-1.197 0.095,-2 0.274,-3.605 z"
         style="fill:#d5fff6;fill-opacity:1;fill-rule:nonzero;stroke:none"
         id="path4842" />
    </g>
    <g
       transform="matrix(0.35277777,0,0,-0.35277777,140.57041,167.6754)"
       id="g4848"
       style="opacity:0.85;fill:#d5fff6">
      <path
         d="m 0,0 h -69.009 c -0.738,0 -1.338,0.6 -1.338,1.337 0,0.739 0.6,1.338 1.338,1.338 H 0 C 0.738,2.675 1.337,2.076 1.337,1.337 1.337,0.6 0.738,0 0,0"
         style="fill:#d5fff6;fill-opacity:1;fill-rule:nonzero;stroke:none"
         id="path4846" />
    </g>
    <g
       transform="matrix(0.35277777,0,0,-0.35277777,136.79597,170.12865)"
       id="g4852"
       style="opacity:0.85;fill:#d5fff6">
      <path
         d="m 0,0 h -47.611 c -0.739,0 -1.337,0.599 -1.337,1.338 0,0.737 0.598,1.337 1.337,1.337 H 0 c 0.738,0 1.338,-0.6 1.338,-1.337 C 1.338,0.599 0.738,0 0,0"
         style="fill:#d5fff6;fill-opacity:1;fill-rule:nonzero;stroke:none"
         id="path4850" />
    </g>
    <g
       transform="matrix(0.35277777,0,0,-0.35277777,133.02153,172.5819)"
       id="g4856"
       style="opacity:0.85;fill:#d5fff6">
      <path
         d="m 0,0 h -26.213 c -0.738,0 -1.337,0.599 -1.337,1.337 0,0.739 0.599,1.338 1.337,1.338 H 0 C 0.739,2.675 1.337,2.076 1.337,1.337 1.337,0.599 0.739,0 0,0"
         style="fill:#d5fff6;fill-opacity:1;fill-rule:nonzero;stroke:none"
         id="path4854" />
    </g>
  </g>
</svg>
