<?xml version="1.0" encoding="UTF-8" standalone="no"?>
<svg
   xmlns:dc="http://purl.org/dc/elements/1.1/"
   xmlns:cc="http://creativecommons.org/ns#"
   xmlns:rdf="http://www.w3.org/1999/02/22-rdf-syntax-ns#"
   xmlns:svg="http://www.w3.org/2000/svg"
   xmlns="http://www.w3.org/2000/svg"
   xmlns:sodipodi="http://sodipodi.sourceforge.net/DTD/sodipodi-0.dtd"
   xmlns:inkscape="http://www.inkscape.org/namespaces/inkscape"
   width="22.36611mm"
   height="20.860338mm"
   viewBox="0 0 22.36611 20.860339"
   version="1.1"
   id="svg11514"
   inkscape:version="1.0.2 (e86c8708, 2021-01-15)"
   sodipodi:docname="heavy-rain.svg">
  <defs
     id="defs11508" />
  <sodipodi:namedview
     id="base"
     pagecolor="#ffffff"
     bordercolor="#666666"
     borderopacity="1.0"
     inkscape:pageopacity="0.0"
     inkscape:pageshadow="2"
     inkscape:zoom="7.2094966"
     inkscape:cx="38.792028"
     inkscape:cy="42.096386"
     inkscape:document-units="mm"
     inkscape:current-layer="layer1"
     inkscape:document-rotation="0"
     showgrid="false"
     inkscape:window-width="1252"
     inkscape:window-height="816"
     inkscape:window-x="0"
     inkscape:window-y="23"
     inkscape:window-maximized="0" />
  <metadata
     id="metadata11511">
    <rdf:RDF>
      <cc:Work
         rdf:about="">
        <dc:format>image/svg+xml</dc:format>
        <dc:type
           rdf:resource="http://purl.org/dc/dcmitype/StillImage" />
        <dc:title></dc:title>
      </cc:Work>
    </rdf:RDF>
  </metadata>
  <g
     inkscape:label="Layer 1"
     inkscape:groupmode="layer"
     id="layer1"
     transform="translate(-94.725526,-139.06882)">
    <g
       transform="matrix(0.35277777,0,0,-0.35277777,99.053756,154.80553)"
       id="g5752"
       style="opacity:0.85;fill:#d5fff6">
      <path
         d="m 0,0 c -0.074,0 -0.148,0.006 -0.225,0.019 -6.978,1.192 -12.044,7.186 -12.044,14.252 0,7.973 6.518,14.46 14.53,14.46 1.635,0 3.22,-0.261 4.727,-0.779 2.6,9.742 11.478,16.656 21.689,16.656 12.382,0 22.454,-10.056 22.454,-22.417 0,-7.775 -3.943,-14.875 -10.55,-18.991 -0.619,-0.387 -1.434,-0.197 -1.819,0.423 -0.386,0.619 -0.198,1.433 0.422,1.819 5.827,3.631 9.305,9.892 9.305,16.749 0,10.904 -8.887,19.775 -19.812,19.775 -9.483,0 -17.663,-6.759 -19.451,-16.071 C 9.148,25.493 8.89,25.149 8.524,24.965 8.16,24.78 7.73,24.774 7.361,24.951 5.772,25.707 4.057,26.09 2.261,26.09 -4.294,26.09 -9.627,20.788 -9.627,14.271 -9.627,8.496 -5.485,3.598 0.221,2.623 0.939,2.5 1.423,1.817 1.3,1.099 1.19,0.455 0.632,0 0,0"
         style="fill:#d5fff6;fill-opacity:1;fill-rule:nonzero;stroke:none"
         id="path5750" />
    </g>
    <g
       transform="matrix(0.35277777,0,0,-0.35277777,100.59681,155.95259)"
       id="g5756"
       style="opacity:0.85;fill:#d5fff6">
      <path
         d="M 0,0 C -0.632,0.365 -0.848,1.172 -0.483,1.804 L 2.951,7.752 C 3.315,8.384 4.123,8.6 4.755,8.235 5.387,7.871 5.604,7.063 5.238,6.431 L 1.805,0.483 C 1.439,-0.148 0.632,-0.365 0,0"
         style="fill:#d5fff6;fill-opacity:1;fill-rule:nonzero;stroke:none"
         id="path5754" />
    </g>
    <g
       transform="matrix(0.35277777,0,0,-0.35277777,103.57891,155.95259)"
       id="g5760"
       style="opacity:0.85;fill:#d5fff6">
      <path
         d="M 0,0 C -0.632,0.365 -0.848,1.172 -0.483,1.804 L 2.951,7.752 C 3.315,8.384 4.123,8.6 4.755,8.235 5.387,7.871 5.604,7.063 5.238,6.431 L 1.805,0.483 C 1.439,-0.148 0.632,-0.365 0,0"
         style="fill:#d5fff6;fill-opacity:1;fill-rule:nonzero;stroke:none"
         id="path5758" />
    </g>
    <g
       transform="matrix(0.35277777,0,0,-0.35277777,106.56097,155.95259)"
       id="g5764"
       style="opacity:0.85;fill:#d5fff6">
      <path
         d="M 0,0 C -0.632,0.365 -0.848,1.172 -0.483,1.804 L 2.951,7.752 C 3.315,8.384 4.123,8.6 4.755,8.235 5.387,7.871 5.604,7.063 5.238,6.431 L 1.805,0.483 C 1.439,-0.148 0.632,-0.365 0,0"
         style="fill:#d5fff6;fill-opacity:1;fill-rule:nonzero;stroke:none"
         id="path5762" />
    </g>
    <g
       transform="matrix(0.35277777,0,0,-0.35277777,109.54304,155.95259)"
       id="g5768"
       style="opacity:0.85;fill:#d5fff6">
      <path
         d="M 0,0 C -0.632,0.365 -0.848,1.172 -0.483,1.804 L 2.951,7.752 C 3.315,8.384 4.123,8.6 4.755,8.235 5.387,7.871 5.604,7.063 5.238,6.431 L 1.805,0.483 C 1.439,-0.148 0.632,-0.365 0,0"
         style="fill:#d5fff6;fill-opacity:1;fill-rule:nonzero;stroke:none"
         id="path5766" />
    </g>
    <g
       transform="matrix(0.35277777,0,0,-0.35277777,100.22406,159.86655)"
       id="g5772"
       style="opacity:0.85;fill:#d5fff6">
      <path
         d="M 0,0 C -0.632,0.365 -0.849,1.172 -0.483,1.804 L 2.951,7.752 C 3.315,8.384 4.123,8.6 4.755,8.235 5.387,7.871 5.604,7.063 5.238,6.431 L 1.805,0.483 C 1.439,-0.149 0.632,-0.365 0,0"
         style="fill:#d5fff6;fill-opacity:1;fill-rule:nonzero;stroke:none"
         id="path5770" />
    </g>
    <g
       transform="matrix(0.35277777,0,0,-0.35277777,103.20613,159.86655)"
       id="g5776"
       style="opacity:0.85;fill:#d5fff6">
      <path
         d="M 0,0 C -0.632,0.365 -0.848,1.172 -0.483,1.804 L 2.951,7.752 C 3.315,8.384 4.123,8.6 4.755,8.235 5.387,7.871 5.604,7.063 5.238,6.431 L 1.805,0.483 C 1.439,-0.149 0.632,-0.365 0,0"
         style="fill:#d5fff6;fill-opacity:1;fill-rule:nonzero;stroke:none"
         id="path5774" />
    </g>
    <g
       transform="matrix(0.35277777,0,0,-0.35277777,106.18819,159.86655)"
       id="g5780"
       style="opacity:0.85;fill:#d5fff6">
      <path
         d="M 0,0 C -0.632,0.365 -0.848,1.172 -0.483,1.804 L 2.951,7.752 C 3.315,8.384 4.123,8.6 4.755,8.235 5.387,7.871 5.604,7.063 5.238,6.431 L 1.805,0.483 C 1.439,-0.149 0.632,-0.365 0,0"
         style="fill:#d5fff6;fill-opacity:1;fill-rule:nonzero;stroke:none"
         id="path5778" />
    </g>
  </g>
</svg>
