<?xml version="1.0" encoding="UTF-8" standalone="no"?>
<svg
   xmlns:dc="http://purl.org/dc/elements/1.1/"
   xmlns:cc="http://creativecommons.org/ns#"
   xmlns:rdf="http://www.w3.org/1999/02/22-rdf-syntax-ns#"
   xmlns:svg="http://www.w3.org/2000/svg"
   xmlns="http://www.w3.org/2000/svg"
   xmlns:sodipodi="http://sodipodi.sourceforge.net/DTD/sodipodi-0.dtd"
   xmlns:inkscape="http://www.inkscape.org/namespaces/inkscape"
   width="25.285629mm"
   height="19.430887mm"
   viewBox="0 0 25.285628 19.430891"
   version="1.1"
   id="svg11514"
   inkscape:version="1.0.2 (e86c8708, 2021-01-15)"
   sodipodi:docname="night-partly-cloudy.svg">
  <defs
     id="defs11508">
    <clipPath
       clipPathUnits="userSpaceOnUse"
       id="clipPath4096">
      <path
         d="m 185.521,327.85 h 63.075 v -43.006 h -63.075 z"
         id="path4094" />
    </clipPath>
  </defs>
  <sodipodi:namedview
     id="base"
     pagecolor="#ffffff"
     bordercolor="#666666"
     borderopacity="1.0"
     inkscape:pageopacity="0.0"
     inkscape:pageshadow="2"
     inkscape:zoom="5.8540769"
     inkscape:cx="47.783868"
     inkscape:cy="36.719796"
     inkscape:document-units="mm"
     inkscape:current-layer="layer1"
     inkscape:document-rotation="0"
     showgrid="false"
     inkscape:window-width="1298"
     inkscape:window-height="816"
     inkscape:window-x="0"
     inkscape:window-y="23"
     inkscape:window-maximized="0" />
  <metadata
     id="metadata11511">
    <rdf:RDF>
      <cc:Work
         rdf:about="">
        <dc:format>image/svg+xml</dc:format>
        <dc:type
           rdf:resource="http://purl.org/dc/dcmitype/StillImage" />
        <dc:title></dc:title>
      </cc:Work>
    </rdf:RDF>
  </metadata>
  <g
     inkscape:label="Layer 1"
     inkscape:groupmode="layer"
     id="layer1"
     transform="translate(-130.24001,-164.14341)">
    <g
       transform="matrix(0.35277777,0,0,-0.35277777,138.28539,174.3033)"
       id="g4808"
       style="opacity:0.85;fill:#d5fff6">
      <path
         d="m 0,0 c -6.555,0 -11.888,-5.302 -11.888,-11.819 0,-6.517 5.333,-11.819 11.888,-11.819 h 26.416 c 10.925,0 19.813,8.855 19.813,19.74 0,10.904 -8.888,19.775 -19.813,19.775 C 16.934,15.877 8.753,9.118 6.965,-0.195 6.888,-0.597 6.629,-0.939 6.264,-1.124 5.899,-1.31 5.47,-1.314 5.1,-1.139 3.512,-0.383 1.796,0 0,0 M 26.416,-26.28 H 0 c -8.012,0 -14.529,6.487 -14.529,14.461 0,7.974 6.517,14.461 14.529,14.461 1.636,0 3.221,-0.262 4.728,-0.78 2.598,9.742 11.477,16.657 21.688,16.657 12.382,0 22.454,-10.057 22.454,-22.417 0,-12.341 -10.072,-22.382 -22.454,-22.382"
         style="fill:#d5fff6;fill-opacity:1;fill-rule:nonzero;stroke:none"
         id="path4806" />
    </g>
    <g
       transform="matrix(0.35277777,0,0,-0.35277777,131.90713,176.58362)"
       id="g4812"
       style="opacity:0.85;fill:#d5fff6">
      <path
         d="m 0,0 c -0.433,0 -0.856,0.212 -1.109,0.602 -2.987,4.597 -4.182,10.125 -3.367,15.562 0.063,0.419 0.324,0.782 0.7,0.977 0.377,0.195 0.823,0.196 1.202,0.005 4.592,-2.318 10.123,-1.431 13.762,2.208 3.639,3.638 4.526,9.169 2.207,13.761 -0.192,0.378 -0.19,0.825 0.005,1.201 0.195,0.377 0.558,0.638 0.977,0.702 7.024,1.051 14.212,-1.311 19.226,-6.326 0.144,-0.143 0.283,-0.292 0.421,-0.44 l 0.091,-0.097 c 0.498,-0.533 0.471,-1.369 -0.061,-1.867 -0.533,-0.499 -1.369,-0.47 -1.867,0.062 l -0.094,0.1 c -0.117,0.126 -0.235,0.251 -0.357,0.373 -4.016,4.018 -9.619,6.11 -15.248,5.763 1.848,-5.227 0.57,-11.1 -3.432,-15.101 C 9.055,13.483 3.181,12.205 -2.046,14.054 -2.31,9.822 -1.215,5.613 1.106,2.041 1.503,1.43 1.329,0.611 0.718,0.214 0.496,0.069 0.246,0 0,0"
         style="fill:#d5fff6;fill-opacity:1;fill-rule:nonzero;stroke:none"
         id="path4810" />
    </g>
  </g>
</svg>
