<?xml version="1.0" encoding="UTF-8" standalone="no"?>
<svg
   xmlns:dc="http://purl.org/dc/elements/1.1/"
   xmlns:cc="http://creativecommons.org/ns#"
   xmlns:rdf="http://www.w3.org/1999/02/22-rdf-syntax-ns#"
   xmlns:svg="http://www.w3.org/2000/svg"
   xmlns="http://www.w3.org/2000/svg"
   xmlns:sodipodi="http://sodipodi.sourceforge.net/DTD/sodipodi-0.dtd"
   xmlns:inkscape="http://www.inkscape.org/namespaces/inkscape"
   width="25.285696mm"
   height="24.566399mm"
   viewBox="0 0 25.285694 24.566403"
   version="1.1"
   id="svg11514"
   inkscape:version="1.0.2 (e86c8708, 2021-01-15)"
   sodipodi:docname="night-storm.svg">
  <defs
     id="defs11508">
    <clipPath
       clipPathUnits="userSpaceOnUse"
       id="clipPath4096">
      <path
         d="m 185.521,327.85 h 63.075 v -43.006 h -63.075 z"
         id="path4094" />
    </clipPath>
  </defs>
  <sodipodi:namedview
     id="base"
     pagecolor="#ffffff"
     bordercolor="#666666"
     borderopacity="1.0"
     inkscape:pageopacity="0.0"
     inkscape:pageshadow="2"
     inkscape:zoom="4.6303047"
     inkscape:cx="47.783978"
     inkscape:cy="46.424696"
     inkscape:document-units="mm"
     inkscape:current-layer="layer1"
     inkscape:document-rotation="0"
     showgrid="false"
     inkscape:window-width="1298"
     inkscape:window-height="816"
     inkscape:window-x="0"
     inkscape:window-y="23"
     inkscape:window-maximized="0" />
  <metadata
     id="metadata11511">
    <rdf:RDF>
      <cc:Work
         rdf:about="">
        <dc:format>image/svg+xml</dc:format>
        <dc:type
           rdf:resource="http://purl.org/dc/dcmitype/StillImage" />
        <dc:title></dc:title>
      </cc:Work>
    </rdf:RDF>
  </metadata>
  <g
     inkscape:label="Layer 1"
     inkscape:groupmode="layer"
     id="layer1"
     transform="translate(-127.97533,-160.21678)">
    <g
       transform="matrix(0.35277777,0,0,-0.35277777,129.64311,172.66195)"
       id="g4568"
       style="opacity:0.85;fill:#d5fff6">
      <path
         d="m 0,0 c -0.433,0 -0.855,0.212 -1.109,0.603 -2.988,4.598 -4.184,10.127 -3.369,15.568 0.064,0.419 0.325,0.782 0.701,0.977 0.377,0.195 0.824,0.197 1.202,0.005 4.596,-2.32 10.129,-1.432 13.768,2.207 3.641,3.641 4.528,9.174 2.207,13.769 -0.191,0.378 -0.188,0.826 0.006,1.202 0.195,0.377 0.559,0.638 0.978,0.7 7.027,1.054 14.218,-1.31 19.233,-6.327 0.145,-0.142 0.283,-0.292 0.423,-0.441 l 0.09,-0.096 c 0.499,-0.533 0.472,-1.37 -0.062,-1.868 C 33.535,25.8 32.699,25.828 32.2,26.36 l -0.094,0.101 c -0.117,0.126 -0.233,0.251 -0.355,0.374 -4.02,4.019 -9.623,6.107 -15.256,5.764 1.85,-5.228 0.57,-11.104 -3.433,-15.107 C 9.059,13.488 3.182,12.21 -2.046,14.06 -2.31,9.826 -1.215,5.615 1.107,2.041 1.505,1.43 1.33,0.61 0.719,0.214 0.496,0.069 0.246,0 0,0"
         style="fill:#d5fff6;fill-opacity:1;fill-rule:nonzero;stroke:none"
         id="path4566" />
    </g>
    <g
       transform="matrix(0.35277777,0,0,-0.35277777,138.07535,179.65549)"
       id="g4572"
       style="opacity:0.85;fill:#d5fff6">
      <path
         d="m 0,0 h -5.814 c -8.016,0 -14.538,6.489 -14.538,14.467 0,7.977 6.52,14.467 14.534,14.467 1.635,0 3.218,-0.262 4.726,-0.781 2.6,9.746 11.479,16.664 21.69,16.664 12.378,0 22.448,-10.06 22.448,-22.426 C 43.046,11.213 34.695,1.65 23.621,0.146 22.899,0.047 22.232,0.554 22.134,1.277 22.035,2 22.542,2.666 23.265,2.765 33.036,4.092 40.403,12.529 40.403,22.391 40.403,33.3 31.519,42.174 20.598,42.174 11.115,42.174 2.935,35.412 1.146,26.095 1.069,25.693 0.81,25.351 0.445,25.166 0.079,24.98 -0.35,24.977 -0.72,25.151 c -1.589,0.756 -3.304,1.14 -5.098,1.14 -6.557,0 -11.891,-5.304 -11.891,-11.824 0,-6.521 5.337,-11.824 11.895,-11.824 L 0,2.643 C 0.729,2.643 1.321,2.051 1.321,1.321 1.321,0.591 0.729,0 0,0"
         style="fill:#d5fff6;fill-opacity:1;fill-rule:nonzero;stroke:none"
         id="path4570" />
    </g>
    <g
       transform="matrix(0.35277777,0,0,-0.35277777,140.31259,184.78318)"
       id="g4576"
       style="opacity:0.85;fill:#d5fff6">
      <path
         d="M 0,0 C -0.28,0 -0.562,0.088 -0.802,0.271 -1.381,0.714 -1.492,1.543 -1.05,2.123 L 8.429,14.535 H 0.001 c -0.508,0 -0.971,0.291 -1.191,0.749 -0.22,0.457 -0.159,1.001 0.159,1.398 l 5.286,6.606 c 0.456,0.569 1.286,0.664 1.856,0.207 0.571,-0.456 0.662,-1.287 0.207,-1.857 L 2.75,17.178 h 8.351 c 0.503,0 0.961,-0.285 1.184,-0.736 0.223,-0.451 0.171,-0.988 -0.135,-1.388 L 1.051,0.519 C 0.791,0.179 0.397,0 0,0"
         style="fill:#d5fff6;fill-opacity:1;fill-rule:nonzero;stroke:none"
         id="path4574" />
    </g>
  </g>
</svg>
