<?xml version="1.0" encoding="UTF-8" standalone="no"?>
<svg
   xmlns:dc="http://purl.org/dc/elements/1.1/"
   xmlns:cc="http://creativecommons.org/ns#"
   xmlns:rdf="http://www.w3.org/1999/02/22-rdf-syntax-ns#"
   xmlns:svg="http://www.w3.org/2000/svg"
   xmlns="http://www.w3.org/2000/svg"
   xmlns:sodipodi="http://sodipodi.sourceforge.net/DTD/sodipodi-0.dtd"
   xmlns:inkscape="http://www.inkscape.org/namespaces/inkscape"
   width="25.285799mm"
   height="23.85248mm"
   viewBox="0 0 25.285797 23.852484"
   version="1.1"
   id="svg11514"
   inkscape:version="1.0.2 (e86c8708, 2021-01-15)"
   sodipodi:docname="night-showers.svg">
  <defs
     id="defs11508">
    <clipPath
       clipPathUnits="userSpaceOnUse"
       id="clipPath4096">
      <path
         d="m 185.521,327.85 h 63.075 v -43.006 h -63.075 z"
         id="path4094" />
    </clipPath>
  </defs>
  <sodipodi:namedview
     id="base"
     pagecolor="#ffffff"
     bordercolor="#666666"
     borderopacity="1.0"
     inkscape:pageopacity="0.0"
     inkscape:pageshadow="2"
     inkscape:zoom="4.7688926"
     inkscape:cx="47.784193"
     inkscape:cy="45.075561"
     inkscape:document-units="mm"
     inkscape:current-layer="layer1"
     inkscape:document-rotation="0"
     showgrid="false"
     inkscape:window-width="1298"
     inkscape:window-height="816"
     inkscape:window-x="0"
     inkscape:window-y="23"
     inkscape:window-maximized="0" />
  <metadata
     id="metadata11511">
    <rdf:RDF>
      <cc:Work
         rdf:about="">
        <dc:format>image/svg+xml</dc:format>
        <dc:type
           rdf:resource="http://purl.org/dc/dcmitype/StillImage" />
        <dc:title></dc:title>
      </cc:Work>
    </rdf:RDF>
  </metadata>
  <g
     inkscape:label="Layer 1"
     inkscape:groupmode="layer"
     id="layer1"
     transform="translate(-128.63426,-160.95991)">
    <g
       transform="matrix(0.35277777,0,0,-0.35277777,136.7165,171.0978)"
       id="g4616"
       style="opacity:0.85;fill:#d5fff6">
      <path
         d="m 0,0 c -6.54,0 -11.861,-5.29 -11.861,-11.794 0,-6.503 5.321,-11.794 11.861,-11.794 h 26.359 c 10.902,0 19.771,8.837 19.771,19.697 0,10.882 -8.869,19.734 -19.771,19.734 C 16.897,15.843 8.733,9.098 6.95,-0.195 6.873,-0.596 6.614,-0.937 6.251,-1.122 5.887,-1.307 5.458,-1.312 5.09,-1.137 3.504,-0.382 1.792,0 0,0 M 26.359,-26.224 H 0 c -7.994,0 -14.498,6.474 -14.498,14.43 0,7.957 6.504,14.431 14.498,14.431 1.633,0 3.214,-0.262 4.718,-0.779 2.593,9.722 11.453,16.621 21.641,16.621 12.356,0 22.407,-10.035 22.407,-22.37 0,-12.314 -10.051,-22.333 -22.407,-22.333"
         style="fill:#d5fff6;fill-opacity:1;fill-rule:nonzero;stroke:none"
         id="path4614" />
    </g>
    <g
       transform="matrix(0.35277777,0,0,-0.35277777,138.93032,182.02291)"
       id="g4620"
       style="opacity:0.85;fill:#d5fff6">
      <path
         d="m 0,0 c 0,-0.873 -0.708,-1.581 -1.582,-1.581 -0.873,0 -1.581,0.708 -1.581,1.581 0,0.874 0.708,1.582 1.581,1.582 C -0.708,1.582 0,0.874 0,0"
         style="fill:#d5fff6;fill-opacity:1;fill-rule:nonzero;stroke:none"
         id="path4618" />
    </g>
    <g
       transform="matrix(0.35277777,0,0,-0.35277777,141.90622,182.02291)"
       id="g4624"
       style="opacity:0.85;fill:#d5fff6">
      <path
         d="m 0,0 c 0,-0.873 -0.708,-1.581 -1.582,-1.581 -0.874,0 -1.581,0.708 -1.581,1.581 0,0.874 0.707,1.582 1.581,1.582 C -0.708,1.582 0,0.874 0,0"
         style="fill:#d5fff6;fill-opacity:1;fill-rule:nonzero;stroke:none"
         id="path4622" />
    </g>
    <g
       transform="matrix(0.35277777,0,0,-0.35277777,144.88172,182.02291)"
       id="g4628"
       style="opacity:0.85;fill:#d5fff6">
      <path
         d="m 0,0 c 0,-0.873 -0.708,-1.581 -1.581,-1.581 -0.874,0 -1.582,0.708 -1.582,1.581 0,0.874 0.708,1.582 1.582,1.582 C -0.708,1.582 0,0.874 0,0"
         style="fill:#d5fff6;fill-opacity:1;fill-rule:nonzero;stroke:none"
         id="path4626" />
    </g>
    <g
       transform="matrix(0.35277777,0,0,-0.35277777,147.85761,182.02291)"
       id="g4632"
       style="opacity:0.85;fill:#d5fff6">
      <path
         d="m 0,0 c 0,-0.873 -0.708,-1.581 -1.582,-1.581 -0.873,0 -1.581,0.708 -1.581,1.581 0,0.874 0.708,1.582 1.581,1.582 C -0.708,1.582 0,0.874 0,0"
         style="fill:#d5fff6;fill-opacity:1;fill-rule:nonzero;stroke:none"
         id="path4630" />
    </g>
    <g
       transform="matrix(0.35277777,0,0,-0.35277777,140.41827,184.25465)"
       id="g4636"
       style="opacity:0.85;fill:#d5fff6">
      <path
         d="m 0,0 c 0,-0.873 -0.708,-1.581 -1.582,-1.581 -0.873,0 -1.581,0.708 -1.581,1.581 0,0.874 0.708,1.582 1.581,1.582 C -0.708,1.582 0,0.874 0,0"
         style="fill:#d5fff6;fill-opacity:1;fill-rule:nonzero;stroke:none"
         id="path4634" />
    </g>
    <g
       transform="matrix(0.35277777,0,0,-0.35277777,143.39381,184.25465)"
       id="g4640"
       style="opacity:0.85;fill:#d5fff6">
      <path
         d="m 0,0 c 0,-0.873 -0.708,-1.581 -1.581,-1.581 -0.874,0 -1.582,0.708 -1.582,1.581 0,0.874 0.708,1.582 1.582,1.582 C -0.708,1.582 0,0.874 0,0"
         style="fill:#d5fff6;fill-opacity:1;fill-rule:nonzero;stroke:none"
         id="path4638" />
    </g>
    <g
       transform="matrix(0.35277777,0,0,-0.35277777,146.36967,184.25465)"
       id="g4644"
       style="opacity:0.85;fill:#d5fff6">
      <path
         d="m 0,0 c 0,-0.873 -0.708,-1.581 -1.582,-1.581 -0.873,0 -1.581,0.708 -1.581,1.581 0,0.874 0.708,1.582 1.581,1.582 C -0.708,1.582 0,0.874 0,0"
         style="fill:#d5fff6;fill-opacity:1;fill-rule:nonzero;stroke:none"
         id="path4642" />
    </g>
    <g
       transform="matrix(0.35277777,0,0,-0.35277777,130.2976,173.37297)"
       id="g4648"
       style="opacity:0.85;fill:#d5fff6">
      <path
         d="m 0,0 c -0.431,0 -0.854,0.211 -1.106,0.6 -2.98,4.587 -4.173,10.103 -3.36,15.529 0.063,0.418 0.323,0.78 0.698,0.975 0.376,0.194 0.822,0.196 1.2,0.005 4.584,-2.314 10.101,-1.429 13.733,2.202 3.631,3.63 4.516,9.15 2.201,13.732 -0.19,0.378 -0.188,0.824 0.006,1.199 0.194,0.376 0.557,0.637 0.975,0.699 7.01,1.05 14.18,-1.306 19.184,-6.31 0.144,-0.144 0.283,-0.292 0.421,-0.441 l 0.091,-0.096 c 0.497,-0.532 0.47,-1.365 -0.062,-1.864 -0.532,-0.498 -1.366,-0.468 -1.863,0.062 l -0.094,0.101 c -0.117,0.125 -0.233,0.25 -0.355,0.373 -4.008,4.008 -9.598,6.094 -15.216,5.749 C 18.297,27.301 17.021,21.439 13.028,17.447 9.036,13.453 3.174,12.178 -2.04,14.022 -2.304,9.8 -1.212,5.601 1.104,2.035 1.501,1.426 1.327,0.608 0.717,0.212 0.495,0.068 0.246,0 0,0"
         style="fill:#d5fff6;fill-opacity:1;fill-rule:nonzero;stroke:none"
         id="path4646" />
    </g>
  </g>
</svg>
