<?xml version="1.0" encoding="UTF-8" standalone="no"?>
<svg
   xmlns:dc="http://purl.org/dc/elements/1.1/"
   xmlns:cc="http://creativecommons.org/ns#"
   xmlns:rdf="http://www.w3.org/1999/02/22-rdf-syntax-ns#"
   xmlns:svg="http://www.w3.org/2000/svg"
   xmlns="http://www.w3.org/2000/svg"
   xmlns:sodipodi="http://sodipodi.sourceforge.net/DTD/sodipodi-0.dtd"
   xmlns:inkscape="http://www.inkscape.org/namespaces/inkscape"
   width="25.285778mm"
   height="17.721231mm"
   viewBox="0 0 25.285778 17.721232"
   version="1.1"
   id="svg11514"
   inkscape:version="1.0.2 (e86c8708, 2021-01-15)"
   sodipodi:docname="partly-cloudy.svg">
  <defs
     id="defs11508" />
  <sodipodi:namedview
     id="base"
     pagecolor="#ffffff"
     bordercolor="#666666"
     borderopacity="1.0"
     inkscape:pageopacity="0.0"
     inkscape:pageshadow="2"
     inkscape:zoom="6.4188488"
     inkscape:cx="47.784153"
     inkscape:cy="33.488931"
     inkscape:document-units="mm"
     inkscape:current-layer="layer1"
     inkscape:document-rotation="0"
     showgrid="false"
     inkscape:window-width="1298"
     inkscape:window-height="816"
     inkscape:window-x="0"
     inkscape:window-y="23"
     inkscape:window-maximized="0" />
  <metadata
     id="metadata11511">
    <rdf:RDF>
      <cc:Work
         rdf:about="">
        <dc:format>image/svg+xml</dc:format>
        <dc:type
           rdf:resource="http://purl.org/dc/dcmitype/StillImage" />
        <dc:title></dc:title>
      </cc:Work>
    </rdf:RDF>
  </metadata>
  <g
     inkscape:label="Layer 1"
     inkscape:groupmode="layer"
     id="layer1"
     transform="translate(-119.00083,-162.51159)">
    <g
       transform="matrix(0.35277777,0,0,-0.35277777,127.04636,170.9276)"
       id="g5584"
       style="opacity:0.85;fill:#d5fff6">
      <path
         d="m 0,0 c -6.555,0 -11.888,-5.171 -11.888,-11.688 0,-6.518 5.333,-11.689 11.888,-11.689 h 26.416 c 10.925,0 19.813,8.725 19.813,19.609 0,10.904 -8.888,19.71 -19.813,19.71 C 16.933,15.942 8.752,9.15 6.965,-0.163 6.888,-0.564 6.629,-0.924 6.265,-1.108 5.899,-1.294 5.47,-1.306 5.101,-1.131 3.512,-0.375 1.796,0 0,0 M 26.416,-26.377 H 0 c -8.012,0 -14.529,6.535 -14.529,14.509 0,7.974 6.517,14.485 14.529,14.485 1.637,0 3.221,-0.249 4.729,-0.767 2.597,9.742 11.477,16.662 21.687,16.662 12.382,0 22.454,-10.101 22.454,-22.462 0,-12.341 -10.072,-22.427 -22.454,-22.427"
         style="fill:#d5fff6;fill-opacity:1;fill-rule:nonzero;stroke:none"
         id="path5582" />
    </g>
    <g
       transform="matrix(0.35277777,0,0,-0.35277777,120.34562,174.40302)"
       id="g5588"
       style="opacity:0.85;fill:#d5fff6">
      <path
         d="m 0,0 c -0.472,0 -0.928,0.253 -1.166,0.698 -1.73,3.239 -2.646,6.889 -2.646,10.556 0,12.381 10.074,22.454 22.455,22.454 4.538,0 8.916,-1.354 12.659,-3.916 0.601,-0.413 0.756,-1.235 0.344,-1.837 C 31.233,27.354 30.411,27.2 29.81,27.611 26.508,29.872 22.646,31.066 18.643,31.066 7.718,31.066 -1.17,22.179 -1.17,11.254 -1.17,8.02 -0.363,4.8 1.164,1.943 1.508,1.3 1.265,0.5 0.621,0.156 0.423,0.05 0.21,0 0,0"
         style="fill:#d5fff6;fill-opacity:1;fill-rule:nonzero;stroke:none"
         id="path5586" />
    </g>
  </g>
</svg>
