<?xml version="1.0" encoding="UTF-8" standalone="no"?>
<svg
   xmlns:dc="http://purl.org/dc/elements/1.1/"
   xmlns:cc="http://creativecommons.org/ns#"
   xmlns:rdf="http://www.w3.org/1999/02/22-rdf-syntax-ns#"
   xmlns:svg="http://www.w3.org/2000/svg"
   xmlns="http://www.w3.org/2000/svg"
   xmlns:sodipodi="http://sodipodi.sourceforge.net/DTD/sodipodi-0.dtd"
   xmlns:inkscape="http://www.inkscape.org/namespaces/inkscape"
   width="22.365404mm"
   height="21.022631mm"
   viewBox="0 0 22.365404 21.022631"
   version="1.1"
   id="svg11514"
   inkscape:version="1.0.2 (e86c8708, 2021-01-15)"
   sodipodi:docname="rain.svg">
  <defs
     id="defs11508" />
  <sodipodi:namedview
     id="base"
     pagecolor="#ffffff"
     bordercolor="#666666"
     borderopacity="1.0"
     inkscape:pageopacity="0.0"
     inkscape:pageshadow="2"
     inkscape:zoom="7.2094966"
     inkscape:cx="44.656322"
     inkscape:cy="40.737413"
     inkscape:document-units="mm"
     inkscape:current-layer="layer1"
     inkscape:document-rotation="0"
     showgrid="false"
     inkscape:window-width="1252"
     inkscape:window-height="816"
     inkscape:window-x="0"
     inkscape:window-y="23"
     inkscape:window-maximized="0" />
  <metadata
     id="metadata11511">
    <rdf:RDF>
      <cc:Work
         rdf:about="">
        <dc:format>image/svg+xml</dc:format>
        <dc:type
           rdf:resource="http://purl.org/dc/dcmitype/StillImage" />
        <dc:title></dc:title>
      </cc:Work>
    </rdf:RDF>
  </metadata>
  <g
     inkscape:label="Layer 1"
     inkscape:groupmode="layer"
     id="layer1"
     transform="translate(-93.614323,-140.47096)">
    <g
       transform="matrix(0.35277777,0,0,-0.35277777,98.180678,156.24189)"
       id="g5720"
       style="opacity:0.85;fill:#d5fff6">
      <path
         d="m 0,0 c -0.052,-0.001 -0.104,0.003 -0.157,0.009 -7.29,0.863 -12.787,7.036 -12.787,14.358 0,7.974 6.517,14.461 14.529,14.461 1.636,0 3.22,-0.262 4.727,-0.779 2.599,9.742 11.478,16.656 21.689,16.656 12.381,0 22.453,-10.057 22.453,-22.417 0,-8.515 -4.732,-16.179 -12.35,-20 -0.652,-0.328 -1.447,-0.064 -1.774,0.588 -0.327,0.651 -0.063,1.445 0.589,1.772 6.72,3.373 10.894,10.131 10.894,17.64 0,10.904 -8.887,19.775 -19.812,19.775 -9.483,0 -17.664,-6.759 -19.452,-16.072 -0.077,-0.401 -0.336,-0.745 -0.7,-0.929 -0.366,-0.185 -0.794,-0.19 -1.164,-0.014 -1.588,0.756 -3.305,1.139 -5.1,1.139 -6.556,0 -11.888,-5.302 -11.888,-11.82 0,-5.984 4.495,-11.029 10.457,-11.735 C 0.878,2.547 1.396,1.89 1.31,1.165 1.23,0.493 0.66,0 0,0"
         style="fill:#d5fff6;fill-opacity:1;fill-rule:nonzero;stroke:none"
         id="path5718" />
    </g>
    <g
       transform="matrix(0.35277777,0,0,-0.35277777,100.32387,157.57927)"
       id="g5724"
       style="opacity:0.85;fill:#d5fff6">
      <path
         d="m 0,0 c -0.729,0 -1.32,0.591 -1.32,1.32 v 6.868 c 0,0.73 0.591,1.322 1.32,1.322 0.729,0 1.321,-0.592 1.321,-1.322 V 1.32 C 1.321,0.591 0.729,0 0,0"
         style="fill:#d5fff6;fill-opacity:1;fill-rule:nonzero;stroke:none"
         id="path5722" />
    </g>
    <g
       transform="matrix(0.35277777,0,0,-0.35277777,103.30594,157.57927)"
       id="g5728"
       style="opacity:0.85;fill:#d5fff6">
      <path
         d="m 0,0 c -0.729,0 -1.32,0.591 -1.32,1.32 v 6.868 c 0,0.73 0.591,1.322 1.32,1.322 0.729,0 1.321,-0.592 1.321,-1.322 V 1.32 C 1.321,0.591 0.729,0 0,0"
         style="fill:#d5fff6;fill-opacity:1;fill-rule:nonzero;stroke:none"
         id="path5726" />
    </g>
    <g
       transform="matrix(0.35277777,0,0,-0.35277777,106.28801,157.57927)"
       id="g5732"
       style="opacity:0.85;fill:#d5fff6">
      <path
         d="m 0,0 c -0.729,0 -1.32,0.591 -1.32,1.32 v 6.868 c 0,0.73 0.591,1.322 1.32,1.322 0.729,0 1.321,-0.592 1.321,-1.322 V 1.32 C 1.321,0.591 0.729,0 0,0"
         style="fill:#d5fff6;fill-opacity:1;fill-rule:nonzero;stroke:none"
         id="path5730" />
    </g>
    <g
       transform="matrix(0.35277777,0,0,-0.35277777,109.27011,157.57927)"
       id="g5736"
       style="opacity:0.85;fill:#d5fff6">
      <path
         d="m 0,0 c -0.729,0 -1.32,0.591 -1.32,1.32 v 6.868 c 0,0.73 0.591,1.322 1.32,1.322 0.729,0 1.321,-0.592 1.321,-1.322 V 1.32 C 1.321,0.591 0.729,0 0,0"
         style="fill:#d5fff6;fill-opacity:1;fill-rule:nonzero;stroke:none"
         id="path5734" />
    </g>
    <g
       transform="matrix(0.35277777,0,0,-0.35277777,101.81489,161.49359)"
       id="g5740"
       style="opacity:0.85;fill:#d5fff6">
      <path
         d="m 0,0 c -0.729,0 -1.32,0.592 -1.32,1.321 v 6.868 c 0,0.73 0.591,1.322 1.32,1.322 0.729,0 1.321,-0.592 1.321,-1.322 V 1.321 C 1.321,0.592 0.729,0 0,0"
         style="fill:#d5fff6;fill-opacity:1;fill-rule:nonzero;stroke:none"
         id="path5738" />
    </g>
    <g
       transform="matrix(0.35277777,0,0,-0.35277777,104.79699,161.49359)"
       id="g5744"
       style="opacity:0.85;fill:#d5fff6">
      <path
         d="m 0,0 c -0.729,0 -1.32,0.592 -1.32,1.321 v 6.868 c 0,0.73 0.591,1.322 1.32,1.322 0.729,0 1.321,-0.592 1.321,-1.322 V 1.321 C 1.321,0.592 0.729,0 0,0"
         style="fill:#d5fff6;fill-opacity:1;fill-rule:nonzero;stroke:none"
         id="path5742" />
    </g>
    <g
       transform="matrix(0.35277777,0,0,-0.35277777,107.77906,161.49359)"
       id="g5748"
       style="opacity:0.85;fill:#d5fff6">
      <path
         d="m 0,0 c -0.729,0 -1.32,0.592 -1.32,1.321 v 6.868 c 0,0.73 0.591,1.322 1.32,1.322 0.729,0 1.321,-0.592 1.321,-1.322 V 1.321 C 1.321,0.592 0.729,0 0,0"
         style="fill:#d5fff6;fill-opacity:1;fill-rule:nonzero;stroke:none"
         id="path5746" />
    </g>
    <path
       style="opacity:0.85;fill:#d5fff6;fill-opacity:0;stroke-width:0.0322733"
       d="m 100.13417,157.51569 c -0.0618,-0.032 -0.145722,-0.10818 -0.18656,-0.1693 l -0.07425,-0.11114 0.009,-1.36486 0.0091,-1.36486 0.11794,-0.11791 c 0.22502,-0.22497 0.5695,-0.16819 0.71305,0.11753 0.0509,0.10133 0.0564,0.23857 0.0564,1.40325 0,1.16531 -0.005,1.3017 -0.0564,1.40159 -0.11498,0.22549 -0.37472,0.31631 -0.58829,0.2057 z"
       id="path10249" />
  </g>
</svg>
