<?xml version="1.0" encoding="UTF-8" standalone="no"?>
<svg
   xmlns:dc="http://purl.org/dc/elements/1.1/"
   xmlns:cc="http://creativecommons.org/ns#"
   xmlns:rdf="http://www.w3.org/1999/02/22-rdf-syntax-ns#"
   xmlns:svg="http://www.w3.org/2000/svg"
   xmlns="http://www.w3.org/2000/svg"
   xmlns:sodipodi="http://sodipodi.sourceforge.net/DTD/sodipodi-0.dtd"
   xmlns:inkscape="http://www.inkscape.org/namespaces/inkscape"
   width="25.285057mm"
   height="22.791777mm"
   viewBox="0 0 25.285057 22.791778"
   version="1.1"
   id="svg11514"
   inkscape:version="1.0.2 (e86c8708, 2021-01-15)"
   sodipodi:docname="rainy-with-sun.svg">
  <defs
     id="defs11508" />
  <sodipodi:namedview
     id="base"
     pagecolor="#ffffff"
     bordercolor="#666666"
     borderopacity="1.0"
     inkscape:pageopacity="0.0"
     inkscape:pageshadow="2"
     inkscape:zoom="4.9908311"
     inkscape:cx="47.782791"
     inkscape:cy="43.071074"
     inkscape:document-units="mm"
     inkscape:current-layer="layer1"
     inkscape:document-rotation="0"
     showgrid="false"
     inkscape:window-width="1298"
     inkscape:window-height="816"
     inkscape:window-x="0"
     inkscape:window-y="23"
     inkscape:window-maximized="0" />
  <metadata
     id="metadata11511">
    <rdf:RDF>
      <cc:Work
         rdf:about="">
        <dc:format>image/svg+xml</dc:format>
        <dc:type
           rdf:resource="http://purl.org/dc/dcmitype/StillImage" />
        <dc:title></dc:title>
      </cc:Work>
    </rdf:RDF>
  </metadata>
  <g
     inkscape:label="Layer 1"
     inkscape:groupmode="layer"
     id="layer1"
     transform="translate(-117.75313,-157.65125)">
    <g
       transform="matrix(0.35277777,0,0,-0.35277777,124.96115,175.30866)"
       id="g5356"
       style="opacity:0.85;fill:#d5fff6">
      <path
         d="m 0,0 c -0.073,0 -0.148,0.006 -0.225,0.02 -6.992,1.195 -12.067,7.201 -12.067,14.281 0,7.992 6.531,14.492 14.56,14.492 1.639,0 3.227,-0.262 4.737,-0.781 2.605,9.763 11.503,16.693 21.735,16.693 12.408,0 22.502,-10.078 22.502,-22.467 0,-7.791 -3.951,-14.906 -10.572,-19.031 -0.621,-0.385 -1.438,-0.197 -1.824,0.424 -0.385,0.621 -0.198,1.437 0.424,1.824 5.839,3.637 9.326,9.912 9.326,16.783 0,10.928 -8.907,19.819 -19.856,19.819 -9.504,0 -17.701,-6.774 -19.493,-16.106 C 9.171,25.549 8.911,25.203 8.545,25.02 8.179,24.834 7.749,24.828 7.378,25.004 5.787,25.762 4.067,26.146 2.268,26.146 -4.301,26.146 -9.646,20.832 -9.646,14.301 -9.646,8.516 -5.495,3.605 0.222,2.629 0.942,2.506 1.427,1.822 1.303,1.102 1.193,0.457 0.633,0 0,0"
         style="fill:#d5fff6;fill-opacity:1;fill-rule:nonzero;stroke:none"
         id="path5354" />
    </g>
    <g
       transform="matrix(0.35277777,0,0,-0.35277777,126.50837,176.45794)"
       id="g5360"
       style="opacity:0.85;fill:#d5fff6">
      <path
         d="M 0,0 C -0.634,0.365 -0.85,1.174 -0.485,1.809 L 2.956,7.768 C 3.322,8.402 4.131,8.619 4.765,8.252 5.398,7.887 5.615,7.078 5.249,6.445 L 1.808,0.484 C 1.442,-0.15 0.633,-0.365 0,0"
         style="fill:#d5fff6;fill-opacity:1;fill-rule:nonzero;stroke:none"
         id="path5358" />
    </g>
    <g
       transform="matrix(0.35277777,0,0,-0.35277777,129.49699,176.45794)"
       id="g5364"
       style="opacity:0.85;fill:#d5fff6">
      <path
         d="M 0,0 C -0.634,0.365 -0.851,1.174 -0.485,1.809 L 2.956,7.768 C 3.322,8.402 4.131,8.619 4.765,8.252 5.397,7.887 5.615,7.078 5.249,6.445 L 1.808,0.484 C 1.442,-0.15 0.633,-0.365 0,0"
         style="fill:#d5fff6;fill-opacity:1;fill-rule:nonzero;stroke:none"
         id="path5362" />
    </g>
    <g
       transform="matrix(0.35277777,0,0,-0.35277777,132.48527,176.45794)"
       id="g5368"
       style="opacity:0.85;fill:#d5fff6">
      <path
         d="M 0,0 C -0.635,0.365 -0.85,1.174 -0.484,1.809 L 2.957,7.768 C 3.322,8.402 4.131,8.619 4.766,8.252 5.398,7.887 5.615,7.078 5.25,6.445 L 1.807,0.484 C 1.443,-0.15 0.633,-0.365 0,0"
         style="fill:#d5fff6;fill-opacity:1;fill-rule:nonzero;stroke:none"
         id="path5366" />
    </g>
    <g
       transform="matrix(0.35277777,0,0,-0.35277777,135.47354,176.45794)"
       id="g5372"
       style="opacity:0.85;fill:#d5fff6">
      <path
         d="M 0,0 C -0.633,0.365 -0.85,1.174 -0.484,1.809 L 2.957,7.768 C 3.324,8.402 4.133,8.619 4.766,8.252 5.398,7.887 5.615,7.078 5.25,6.445 L 1.809,0.484 C 1.443,-0.15 0.633,-0.365 0,0"
         style="fill:#d5fff6;fill-opacity:1;fill-rule:nonzero;stroke:none"
         id="path5370" />
    </g>
    <g
       transform="matrix(0.35277777,0,0,-0.35277777,126.13492,180.38051)"
       id="g5376"
       style="opacity:0.85;fill:#d5fff6">
      <path
         d="M 0,0 C -0.635,0.365 -0.851,1.174 -0.485,1.809 L 2.956,7.77 C 3.322,8.402 4.131,8.619 4.765,8.254 5.397,7.887 5.615,7.078 5.249,6.445 L 1.808,0.484 C 1.442,-0.148 0.633,-0.365 0,0"
         style="fill:#d5fff6;fill-opacity:1;fill-rule:nonzero;stroke:none"
         id="path5374" />
    </g>
    <g
       transform="matrix(0.35277777,0,0,-0.35277777,129.12319,180.38051)"
       id="g5380"
       style="opacity:0.85;fill:#d5fff6">
      <path
         d="M 0,0 C -0.634,0.365 -0.85,1.174 -0.484,1.809 L 2.957,7.77 C 3.323,8.402 4.132,8.619 4.766,8.254 5.398,7.887 5.615,7.078 5.249,6.445 L 1.808,0.484 C 1.443,-0.148 0.633,-0.365 0,0"
         style="fill:#d5fff6;fill-opacity:1;fill-rule:nonzero;stroke:none"
         id="path5378" />
    </g>
    <g
       transform="matrix(0.35277777,0,0,-0.35277777,132.11182,180.38051)"
       id="g5384"
       style="opacity:0.85;fill:#d5fff6">
      <path
         d="M 0,0 C -0.635,0.365 -0.85,1.174 -0.486,1.809 L 2.957,7.77 C 3.322,8.402 4.131,8.619 4.766,8.254 5.398,7.887 5.615,7.078 5.248,6.445 L 1.807,0.484 C 1.441,-0.148 0.633,-0.365 0,0"
         style="fill:#d5fff6;fill-opacity:1;fill-rule:nonzero;stroke:none"
         id="path5382" />
    </g>
    <g
       transform="matrix(0.35277777,0,0,-0.35277777,119.10039,169.56773)"
       id="g5388"
       style="opacity:0.85;fill:#d5fff6">
      <path
         d="m 0,0 c -0.473,0 -0.931,0.254 -1.169,0.699 -1.734,3.246 -2.65,6.905 -2.65,10.578 0,12.409 10.093,22.502 22.502,22.502 4.547,0 8.935,-1.355 12.686,-3.924 0.604,-0.414 0.758,-1.236 0.345,-1.839 -0.413,-0.604 -1.237,-0.758 -1.84,-0.346 -3.31,2.266 -7.179,3.463 -11.191,3.463 -10.949,0 -19.856,-8.906 -19.856,-19.856 0,-3.24 0.81,-6.466 2.339,-9.33 C 1.511,1.303 1.267,0.5 0.623,0.156 0.424,0.051 0.21,0 0,0"
         style="fill:#d5fff6;fill-opacity:1;fill-rule:nonzero;stroke:none"
         id="path5386" />
    </g>
  </g>
</svg>
