<?xml version="1.0" encoding="UTF-8" standalone="no"?>
<svg
   xmlns:dc="http://purl.org/dc/elements/1.1/"
   xmlns:cc="http://creativecommons.org/ns#"
   xmlns:rdf="http://www.w3.org/1999/02/22-rdf-syntax-ns#"
   xmlns:svg="http://www.w3.org/2000/svg"
   xmlns="http://www.w3.org/2000/svg"
   xmlns:sodipodi="http://sodipodi.sourceforge.net/DTD/sodipodi-0.dtd"
   xmlns:inkscape="http://www.inkscape.org/namespaces/inkscape"
   width="22.365404mm"
   height="18.524178mm"
   viewBox="0 0 22.365404 18.524178"
   version="1.1"
   id="svg11514"
   inkscape:version="1.0.2 (e86c8708, 2021-01-15)"
   sodipodi:docname="snow.svg">
  <defs
     id="defs11508" />
  <sodipodi:namedview
     id="base"
     pagecolor="#ffffff"
     bordercolor="#666666"
     borderopacity="1.0"
     inkscape:pageopacity="0.0"
     inkscape:pageshadow="2"
     inkscape:zoom="8.684146"
     inkscape:cx="42.265322"
     inkscape:cy="35.006328"
     inkscape:document-units="mm"
     inkscape:current-layer="layer1"
     inkscape:document-rotation="0"
     showgrid="false"
     inkscape:window-width="1298"
     inkscape:window-height="816"
     inkscape:window-x="0"
     inkscape:window-y="23"
     inkscape:window-maximized="0" />
  <metadata
     id="metadata11511">
    <rdf:RDF>
      <cc:Work
         rdf:about="">
        <dc:format>image/svg+xml</dc:format>
        <dc:type
           rdf:resource="http://purl.org/dc/dcmitype/StillImage" />
        <dc:title></dc:title>
      </cc:Work>
    </rdf:RDF>
  </metadata>
  <g
     inkscape:label="Layer 1"
     inkscape:groupmode="layer"
     id="layer1"
     transform="translate(-106.89152,-150.60289)">
    <g
       transform="matrix(0.35277777,0,0,-0.35277777,120.79163,166.4218)"
       id="g5660"
       style="opacity:0.85;fill:#d5fff6">
      <path
         d="m 0,0 h -15.865 c -0.73,0 -1.322,0.592 -1.322,1.322 0,0.73 0.592,1.322 1.322,1.322 H 0 C 0.73,2.644 1.322,2.052 1.322,1.322 1.322,0.592 0.73,0 0,0"
         style="fill:#d5fff6;fill-opacity:1;fill-rule:nonzero;stroke:none"
         id="path5658" />
    </g>
    <g
       transform="matrix(0.35277777,0,0,-0.35277777,116.50027,169.12707)"
       id="g5664"
       style="opacity:0.85;fill:#d5fff6">
      <path
         d="m 0,0 c -0.216,0 -0.435,0.053 -0.637,0.165 -0.639,0.353 -0.872,1.157 -0.519,1.796 l 8.461,15.336 c 0.352,0.639 1.156,0.873 1.797,0.519 0.639,-0.353 0.871,-1.157 0.519,-1.796 L 1.159,0.684 C 0.918,0.247 0.466,0 0,0"
         style="fill:#d5fff6;fill-opacity:1;fill-rule:nonzero;stroke:none"
         id="path5662" />
    </g>
    <g
       transform="matrix(0.35277777,0,0,-0.35277777,112.95612,166.4218)"
       id="g5668"
       style="opacity:0.85;fill:#d5fff6">
      <path
         d="m 0,0 h -2.644 c -8.022,0 -14.547,6.493 -14.547,14.475 0,7.981 6.522,14.474 14.539,14.474 1.633,0 3.215,-0.262 4.723,-0.78 2.601,9.751 11.482,16.672 21.694,16.672 12.374,0 22.442,-10.066 22.442,-22.439 0,-10.485 -7.484,-19.695 -17.795,-21.899 -0.713,-0.153 -1.416,0.303 -1.568,1.017 -0.153,0.714 0.302,1.416 1.015,1.569 9.1,1.945 15.704,10.068 15.704,19.313 0,10.915 -8.881,19.795 -19.798,19.795 C 14.282,42.197 6.101,35.431 4.311,26.11 4.233,25.708 3.975,25.364 3.609,25.179 3.244,24.994 2.814,24.989 2.444,25.165 c -1.59,0.756 -3.304,1.14 -5.096,1.14 -6.559,0 -11.895,-5.307 -11.895,-11.83 0,-6.524 5.339,-11.831 11.903,-11.831 H 0 C 0.73,2.644 1.322,2.052 1.322,1.322 1.322,0.592 0.73,0 0,0"
         style="fill:#d5fff6;fill-opacity:1;fill-rule:nonzero;stroke:none"
         id="path5666" />
    </g>
    <g
       transform="matrix(0.35277777,0,0,-0.35277777,119.48597,169.12707)"
       id="g5672"
       style="opacity:0.85;fill:#d5fff6">
      <path
         d="M 0,0 C -0.465,0 -0.918,0.247 -1.158,0.684 L -9.62,16.02 c -0.352,0.639 -0.12,1.443 0.519,1.796 0.64,0.354 1.444,0.121 1.797,-0.519 L 1.157,1.961 C 1.51,1.322 1.277,0.518 0.639,0.165 0.436,0.053 0.217,0 0,0"
         style="fill:#d5fff6;fill-opacity:1;fill-rule:nonzero;stroke:none"
         id="path5670" />
    </g>
  </g>
</svg>
