<?xml version="1.0" encoding="UTF-8" standalone="no"?>
<svg
   xmlns:dc="http://purl.org/dc/elements/1.1/"
   xmlns:cc="http://creativecommons.org/ns#"
   xmlns:rdf="http://www.w3.org/1999/02/22-rdf-syntax-ns#"
   xmlns:svg="http://www.w3.org/2000/svg"
   xmlns="http://www.w3.org/2000/svg"
   xmlns:sodipodi="http://sodipodi.sourceforge.net/DTD/sodipodi-0.dtd"
   xmlns:inkscape="http://www.inkscape.org/namespaces/inkscape"
   width="25.285347mm"
   height="22.954935mm"
   viewBox="0 0 25.285347 22.954936"
   version="1.1"
   id="svg11514"
   inkscape:version="1.0.2 (e86c8708, 2021-01-15)"
   sodipodi:docname="sun-shower.svg">
  <defs
     id="defs11508" />
  <sodipodi:namedview
     id="base"
     pagecolor="#ffffff"
     bordercolor="#666666"
     borderopacity="1.0"
     inkscape:pageopacity="0.0"
     inkscape:pageshadow="2"
     inkscape:zoom="4.9553574"
     inkscape:cx="47.783327"
     inkscape:cy="43.379422"
     inkscape:document-units="mm"
     inkscape:current-layer="layer1"
     inkscape:document-rotation="0"
     showgrid="false"
     inkscape:window-width="1298"
     inkscape:window-height="816"
     inkscape:window-x="0"
     inkscape:window-y="23"
     inkscape:window-maximized="0" />
  <metadata
     id="metadata11511">
    <rdf:RDF>
      <cc:Work
         rdf:about="">
        <dc:format>image/svg+xml</dc:format>
        <dc:type
           rdf:resource="http://purl.org/dc/dcmitype/StillImage" />
        <dc:title></dc:title>
      </cc:Work>
    </rdf:RDF>
  </metadata>
  <g
     inkscape:label="Layer 1"
     inkscape:groupmode="layer"
     id="layer1"
     transform="translate(-118.43554,-158.74221)">
    <g
       transform="matrix(0.35277777,0,0,-0.35277777,125.88303,176.43444)"
       id="g5484"
       style="opacity:0.85;fill:#d5fff6">
      <path
         d="m 0,0 c -0.051,0 -0.104,0.003 -0.156,0.009 -7.307,0.865 -12.815,7.052 -12.815,14.389 0,7.992 6.532,14.493 14.559,14.493 1.641,0 3.228,-0.263 4.738,-0.782 2.606,9.763 11.502,16.693 21.736,16.693 12.406,0 22.502,-10.078 22.502,-22.466 0,-8.532 -4.744,-16.213 -12.379,-20.043 -0.652,-0.328 -1.449,-0.064 -1.775,0.589 -0.328,0.654 -0.065,1.449 0.588,1.777 6.734,3.378 10.918,10.152 10.918,17.677 0,10.928 -8.907,19.818 -19.854,19.818 C 18.558,42.154 10.361,35.38 8.568,26.048 8.492,25.646 8.232,25.301 7.867,25.116 7.5,24.931 7.07,24.926 6.699,25.103 c -1.592,0.756 -3.31,1.14 -5.111,1.14 -6.568,0 -11.912,-5.313 -11.912,-11.845 0,-5.997 4.506,-11.052 10.478,-11.76 C 0.881,2.552 1.4,1.894 1.314,1.168 1.234,0.495 0.662,0 0,0"
         style="fill:#d5fff6;fill-opacity:1;fill-rule:nonzero;stroke:none"
         id="path5482" />
    </g>
    <g
       transform="matrix(0.35277777,0,0,-0.35277777,128.03142,177.77493)"
       id="g5488"
       style="opacity:0.85;fill:#d5fff6">
      <path
         d="m 0,0 c -0.732,0 -1.324,0.593 -1.324,1.324 v 6.883 c 0,0.731 0.592,1.323 1.324,1.323 0.73,0 1.322,-0.592 1.322,-1.323 V 1.324 C 1.322,0.593 0.73,0 0,0"
         style="fill:#d5fff6;fill-opacity:1;fill-rule:nonzero;stroke:none"
         id="path5486" />
    </g>
    <g
       transform="matrix(0.35277777,0,0,-0.35277777,131.01969,177.77493)"
       id="g5492"
       style="opacity:0.85;fill:#d5fff6">
      <path
         d="M 0,0 C -0.73,0 -1.324,0.593 -1.324,1.324 V 8.207 C -1.324,8.938 -0.73,9.53 0,9.53 0.73,9.53 1.324,8.938 1.324,8.207 V 1.324 C 1.324,0.593 0.73,0 0,0"
         style="fill:#d5fff6;fill-opacity:1;fill-rule:nonzero;stroke:none"
         id="path5490" />
    </g>
    <g
       transform="matrix(0.35277777,0,0,-0.35277777,134.00779,177.77493)"
       id="g5496"
       style="opacity:0.85;fill:#d5fff6">
      <path
         d="M 0,0 C -0.73,0 -1.322,0.593 -1.322,1.324 V 8.207 C -1.322,8.938 -0.73,9.53 0,9.53 0.732,9.53 1.324,8.938 1.324,8.207 V 1.324 C 1.324,0.593 0.732,0 0,0"
         style="fill:#d5fff6;fill-opacity:1;fill-rule:nonzero;stroke:none"
         id="path5494" />
    </g>
    <g
       transform="matrix(0.35277777,0,0,-0.35277777,136.99677,177.77493)"
       id="g5500"
       style="opacity:0.85;fill:#d5fff6">
      <path
         d="m 0,0 c -0.732,0 -1.324,0.593 -1.324,1.324 v 6.883 c 0,0.731 0.592,1.323 1.324,1.323 0.73,0 1.322,-0.592 1.322,-1.323 V 1.324 C 1.322,0.593 0.73,0 0,0"
         style="fill:#d5fff6;fill-opacity:1;fill-rule:nonzero;stroke:none"
         id="path5498" />
    </g>
    <g
       transform="matrix(0.35277777,0,0,-0.35277777,129.52522,181.69715)"
       id="g5504"
       style="opacity:0.85;fill:#d5fff6">
      <path
         d="M 0,0 C -0.73,0 -1.322,0.593 -1.322,1.323 V 8.206 C -1.322,8.938 -0.73,9.53 0,9.53 0.732,9.53 1.324,8.938 1.324,8.206 V 1.323 C 1.324,0.593 0.732,0 0,0"
         style="fill:#d5fff6;fill-opacity:1;fill-rule:nonzero;stroke:none"
         id="path5502" />
    </g>
    <g
       transform="matrix(0.35277777,0,0,-0.35277777,132.51399,181.69715)"
       id="g5508"
       style="opacity:0.85;fill:#d5fff6">
      <path
         d="m 0,0 c -0.732,0 -1.324,0.593 -1.324,1.323 v 6.883 c 0,0.732 0.592,1.324 1.324,1.324 0.73,0 1.322,-0.592 1.322,-1.324 V 1.323 C 1.322,0.593 0.73,0 0,0"
         style="fill:#d5fff6;fill-opacity:1;fill-rule:nonzero;stroke:none"
         id="path5506" />
    </g>
    <g
       transform="matrix(0.35277777,0,0,-0.35277777,135.50226,181.69715)"
       id="g5512"
       style="opacity:0.85;fill:#d5fff6">
      <path
         d="M 0,0 C -0.73,0 -1.324,0.593 -1.324,1.323 V 8.206 C -1.324,8.938 -0.73,9.53 0,9.53 0.73,9.53 1.324,8.938 1.324,8.206 V 1.323 C 1.324,0.593 0.73,0 0,0"
         style="fill:#d5fff6;fill-opacity:1;fill-rule:nonzero;stroke:none"
         id="path5510" />
    </g>
    <g
       transform="matrix(0.35277777,0,0,-0.35277777,119.78315,170.6594)"
       id="g5516"
       style="opacity:0.85;fill:#d5fff6">
      <path
         d="m 0,0 c -0.473,0 -0.932,0.254 -1.17,0.7 -1.734,3.246 -2.65,6.904 -2.65,10.578 0,12.409 10.093,22.503 22.502,22.503 4.548,0 8.935,-1.357 12.687,-3.926 0.602,-0.412 0.756,-1.236 0.344,-1.839 -0.412,-0.603 -1.236,-0.757 -1.84,-0.345 -3.309,2.266 -7.18,3.463 -11.191,3.463 -10.95,0 -19.856,-8.907 -19.856,-19.856 0,-3.24 0.809,-6.466 2.34,-9.33 C 1.51,1.304 1.268,0.502 0.623,0.157 0.424,0.051 0.209,0 0,0"
         style="fill:#d5fff6;fill-opacity:1;fill-rule:nonzero;stroke:none"
         id="path5514" />
    </g>
  </g>
</svg>
