<?xml version="1.0" encoding="UTF-8" standalone="no"?>
<svg
   xmlns:dc="http://purl.org/dc/elements/1.1/"
   xmlns:cc="http://creativecommons.org/ns#"
   xmlns:rdf="http://www.w3.org/1999/02/22-rdf-syntax-ns#"
   xmlns:svg="http://www.w3.org/2000/svg"
   xmlns="http://www.w3.org/2000/svg"
   xmlns:sodipodi="http://sodipodi.sourceforge.net/DTD/sodipodi-0.dtd"
   xmlns:inkscape="http://www.inkscape.org/namespaces/inkscape"
   width="20.681742mm"
   height="20.681353mm"
   viewBox="0 0 20.681741 20.681355"
   version="1.1"
   id="svg11514"
   inkscape:version="1.0.2 (e86c8708, 2021-01-15)"
   sodipodi:docname="sunny.svg">
  <defs
     id="defs11508" />
  <sodipodi:namedview
     id="base"
     pagecolor="#ffffff"
     bordercolor="#666666"
     borderopacity="1.0"
     inkscape:pageopacity="0.0"
     inkscape:pageshadow="2"
     inkscape:zoom="5.5001196"
     inkscape:cx="39.083603"
     inkscape:cy="39.082866"
     inkscape:document-units="mm"
     inkscape:current-layer="layer1"
     inkscape:document-rotation="0"
     showgrid="false"
     inkscape:window-width="1298"
     inkscape:window-height="816"
     inkscape:window-x="0"
     inkscape:window-y="23"
     inkscape:window-maximized="0" />
  <metadata
     id="metadata11511">
    <rdf:RDF>
      <cc:Work
         rdf:about="">
        <dc:format>image/svg+xml</dc:format>
        <dc:type
           rdf:resource="http://purl.org/dc/dcmitype/StillImage" />
        <dc:title></dc:title>
      </cc:Work>
    </rdf:RDF>
  </metadata>
  <g
     inkscape:label="Layer 1"
     inkscape:groupmode="layer"
     id="layer1"
     transform="translate(-118.53327,-155.16738)">
    <g
       transform="matrix(0.35277777,0,0,-0.35277777,128.87396,158.58339)"
       id="g4912"
       style="opacity:0.85;fill:#d5fff6">
      <path
         d="m 0,0 c -10.823,0 -19.63,-8.806 -19.63,-19.629 0,-10.823 8.807,-19.629 19.63,-19.629 10.823,0 19.63,8.806 19.63,19.629 C 19.63,-8.806 10.823,0 0,0 m 0,-41.875 c -12.267,0 -22.246,9.979 -22.246,22.246 0,12.267 9.979,22.246 22.246,22.246 12.267,0 22.247,-9.979 22.247,-22.246 0,-12.267 -9.98,-22.246 -22.247,-22.246"
         style="fill:#d5fff6;fill-opacity:1;fill-rule:nonzero;stroke:none"
         id="path4910" />
    </g>
    <g
       transform="matrix(0.35277777,0,0,-0.35277777,129.42793,155.72124)"
       id="g4916"
       style="opacity:0.85;fill:#d5fff6">
      <path
         d="m 0,0 c 0,-0.867 -0.702,-1.57 -1.57,-1.57 -0.868,0 -1.571,0.703 -1.571,1.57 0,0.868 0.703,1.57 1.571,1.57 C -0.702,1.57 0,0.868 0,0"
         style="fill:#d5fff6;fill-opacity:1;fill-rule:nonzero;stroke:none"
         id="path4914" />
    </g>
    <g
       transform="matrix(0.35277777,0,0,-0.35277777,129.42793,175.29487)"
       id="g4920"
       style="opacity:0.85;fill:#d5fff6">
      <path
         d="m 0,0 c 0,-0.869 -0.702,-1.57 -1.57,-1.57 -0.868,0 -1.571,0.701 -1.571,1.57 0,0.867 0.703,1.57 1.571,1.57 C -0.702,1.57 0,0.867 0,0"
         style="fill:#d5fff6;fill-opacity:1;fill-rule:nonzero;stroke:none"
         id="path4918" />
    </g>
    <g
       transform="matrix(0.35277777,0,0,-0.35277777,138.66115,166.06204)"
       id="g4924"
       style="opacity:0.85;fill:#d5fff6">
      <path
         d="m 0,0 c -0.869,0 -1.572,0.702 -1.572,1.57 0,0.868 0.703,1.571 1.572,1.571 0.867,0 1.57,-0.703 1.57,-1.571 C 1.57,0.702 0.867,0 0,0"
         style="fill:#d5fff6;fill-opacity:1;fill-rule:nonzero;stroke:none"
         id="path4922" />
    </g>
    <g
       transform="matrix(0.35277777,0,0,-0.35277777,119.08713,166.06204)"
       id="g4928"
       style="opacity:0.85;fill:#d5fff6">
      <path
         d="m 0,0 c -0.868,0 -1.57,0.702 -1.57,1.57 0,0.868 0.702,1.571 1.57,1.571 0.867,0 1.571,-0.703 1.571,-1.571 C 1.571,0.702 0.867,0 0,0"
         style="fill:#d5fff6;fill-opacity:1;fill-rule:nonzero;stroke:none"
         id="path4926" />
    </g>
    <g
       transform="matrix(0.35277777,0,0,-0.35277777,135.40244,172.81992)"
       id="g4932"
       style="opacity:0.85;fill:#d5fff6">
      <path
         d="m 0,0 c -0.613,0.612 -0.613,1.606 0,2.221 0.614,0.612 1.608,0.612 2.221,0 C 2.835,1.606 2.835,0.612 2.221,0 1.608,-0.614 0.614,-0.614 0,0"
         style="fill:#d5fff6;fill-opacity:1;fill-rule:nonzero;stroke:none"
         id="path4930" />
    </g>
    <g
       transform="matrix(0.35277777,0,0,-0.35277777,121.56208,158.9796)"
       id="g4936"
       style="opacity:0.85;fill:#d5fff6">
      <path
         d="m 0,0 c -0.614,0.614 -0.614,1.608 0,2.221 0.612,0.614 1.606,0.614 2.22,0 C 2.833,1.608 2.833,0.614 2.22,0 1.606,-0.612 0.612,-0.612 0,0"
         style="fill:#d5fff6;fill-opacity:1;fill-rule:nonzero;stroke:none"
         id="path4934" />
    </g>
    <g
       transform="matrix(0.35277777,0,0,-0.35277777,121.56176,172.0365)"
       id="g4940"
       style="opacity:0.85;fill:#d5fff6">
      <path
         d="m 0,0 c 0.613,0.612 1.607,0.612 2.221,0 0.613,-0.613 0.613,-1.606 0,-2.221 C 1.607,-2.835 0.613,-2.835 0,-2.221 -0.613,-1.608 -0.613,-0.613 0,0"
         style="fill:#d5fff6;fill-opacity:1;fill-rule:nonzero;stroke:none"
         id="path4938" />
    </g>
    <g
       transform="matrix(0.35277777,0,0,-0.35277777,135.40244,158.19583)"
       id="g4944"
       style="opacity:0.85;fill:#d5fff6">
      <path
         d="m 0,0 c 0.614,0.613 1.606,0.613 2.22,0 0.613,-0.613 0.613,-1.607 0,-2.222 C 1.606,-2.834 0.614,-2.834 0,-2.222 -0.613,-1.607 -0.613,-0.613 0,0"
         style="fill:#d5fff6;fill-opacity:1;fill-rule:nonzero;stroke:none"
         id="path4942" />
    </g>
  </g>
</svg>
