<?xml version="1.0" encoding="UTF-8" standalone="no"?>
<svg
   xmlns:dc="http://purl.org/dc/elements/1.1/"
   xmlns:cc="http://creativecommons.org/ns#"
   xmlns:rdf="http://www.w3.org/1999/02/22-rdf-syntax-ns#"
   xmlns:svg="http://www.w3.org/2000/svg"
   xmlns="http://www.w3.org/2000/svg"
   xmlns:sodipodi="http://sodipodi.sourceforge.net/DTD/sodipodi-0.dtd"
   xmlns:inkscape="http://www.inkscape.org/namespaces/inkscape"
   width="25.285524mm"
   height="19.545963mm"
   viewBox="0 0 25.285524 19.545965"
   version="1.1"
   id="svg11514"
   inkscape:version="1.0.2 (e86c8708, 2021-01-15)"
   sodipodi:docname="windy-with-clouds.svg">
  <defs
     id="defs11508" />
  <sodipodi:namedview
     id="base"
     pagecolor="#ffffff"
     bordercolor="#666666"
     borderopacity="1.0"
     inkscape:pageopacity="0.0"
     inkscape:pageshadow="2"
     inkscape:zoom="5.8196115"
     inkscape:cx="47.783673"
     inkscape:cy="36.937241"
     inkscape:document-units="mm"
     inkscape:current-layer="layer1"
     inkscape:document-rotation="0"
     showgrid="false"
     inkscape:window-width="1298"
     inkscape:window-height="816"
     inkscape:window-x="0"
     inkscape:window-y="23"
     inkscape:window-maximized="0" />
  <metadata
     id="metadata11511">
    <rdf:RDF>
      <cc:Work
         rdf:about="">
        <dc:format>image/svg+xml</dc:format>
        <dc:type
           rdf:resource="http://purl.org/dc/dcmitype/StillImage" />
        <dc:title></dc:title>
      </cc:Work>
    </rdf:RDF>
  </metadata>
  <g
     inkscape:label="Layer 1"
     inkscape:groupmode="layer"
     id="layer1"
     transform="translate(-117.09306,-157.50067)">
    <g
       transform="matrix(0.35277777,0,0,-0.35277777,118.44032,169.4175)"
       id="g4988"
       style="opacity:0.85;fill:#d5fff6">
      <path
         d="m 0,0 c -0.473,0 -0.93,0.254 -1.169,0.7 -1.733,3.245 -2.65,6.903 -2.65,10.578 0,12.408 10.094,22.502 22.502,22.502 4.548,0 8.935,-1.357 12.686,-3.925 0.604,-0.413 0.758,-1.236 0.345,-1.839 -0.412,-0.604 -1.236,-0.758 -1.84,-0.345 -3.309,2.265 -7.179,3.462 -11.191,3.462 -10.949,0 -19.855,-8.906 -19.855,-19.855 0,-3.241 0.809,-6.467 2.339,-9.33 C 1.511,1.303 1.268,0.501 0.623,0.156 0.424,0.051 0.211,0 0,0"
         style="fill:#d5fff6;fill-opacity:1;fill-rule:nonzero;stroke:none"
         id="path4986" />
    </g>
    <g
       transform="matrix(0.35277777,0,0,-0.35277777,131.0783,171.49007)"
       id="g4992"
       style="opacity:0.85;fill:#d5fff6">
      <path
         d="m 0,0 h -29.65 c -0.732,0 -1.324,0.593 -1.324,1.324 0,0.731 0.592,1.323 1.324,1.323 H 0 c 2.189,0 3.971,1.812 3.971,4.038 0,2.226 -1.782,4.037 -3.971,4.037 -0.731,0 -1.324,0.592 -1.324,1.324 0,0.731 0.593,1.323 1.324,1.323 3.649,0 6.618,-2.998 6.618,-6.684 C 6.618,2.999 3.649,0 0,0"
         style="fill:#d5fff6;fill-opacity:1;fill-rule:nonzero;stroke:none"
         id="path4990" />
    </g>
    <g
       transform="matrix(0.35277777,0,0,-0.35277777,131.0783,173.35764)"
       id="g4996"
       style="opacity:0.85;fill:#d5fff6">
      <path
         d="m 0,0 h -27.532 c -0.732,0 -1.324,0.592 -1.324,1.323 0,0.732 0.592,1.324 1.324,1.324 L 0,2.647 C 0.73,2.647 1.323,2.055 1.323,1.323 1.323,0.592 0.73,0 0,0"
         style="fill:#d5fff6;fill-opacity:1;fill-rule:nonzero;stroke:none"
         id="path4994" />
    </g>
    <g
       transform="matrix(0.35277777,0,0,-0.35277777,134.44038,175.22556)"
       id="g5000"
       style="opacity:0.85;fill:#d5fff6">
      <path
         d="m 0,0 h -1.06 c -0.73,0 -1.323,0.593 -1.323,1.323 0,0.732 0.593,1.324 1.323,1.324 H 0 c 10.948,0 19.854,8.874 19.854,19.783 0,10.927 -8.906,19.817 -19.854,19.817 -9.504,0 -17.702,-6.773 -19.494,-16.106 -0.077,-0.403 -0.336,-0.746 -0.702,-0.931 -0.366,-0.186 -0.796,-0.19 -1.166,-0.015 -1.592,0.757 -3.312,1.142 -5.112,1.142 -5.332,0 -10.055,-3.628 -11.485,-8.821 -0.194,-0.705 -0.923,-1.12 -1.628,-0.925 -0.705,0.193 -1.119,0.923 -0.925,1.628 1.746,6.338 7.519,10.765 14.038,10.765 1.64,0 3.228,-0.262 4.739,-0.781 2.604,9.763 11.502,16.692 21.735,16.692 12.407,0 22.502,-10.078 22.502,-22.465 C 22.502,10.062 12.407,0 0,0"
         style="fill:#d5fff6;fill-opacity:1;fill-rule:nonzero;stroke:none"
         id="path4998" />
    </g>
    <g
       transform="matrix(0.35277777,0,0,-0.35277777,131.0783,177.04663)"
       id="g5004"
       style="opacity:0.85;fill:#d5fff6">
      <path
         d="m 0,0 c -0.731,0 -1.324,0.593 -1.324,1.323 0,0.732 0.593,1.324 1.324,1.324 0.755,0 1.323,0.541 1.323,1.257 0,0.717 -0.568,1.258 -1.323,1.258 h -19.591 c -0.73,0 -1.323,0.593 -1.323,1.323 0,0.732 0.593,1.325 1.323,1.325 H 0 C 2.227,7.81 3.971,6.095 3.971,3.904 3.971,1.715 2.227,0 0,0"
         style="fill:#d5fff6;fill-opacity:1;fill-rule:nonzero;stroke:none"
         id="path5002" />
    </g>
  </g>
</svg>
